<svg width="193" height="255" viewBox="0 0 193 255" fill="none" xmlns="http://www.w3.org/2000/svg">
<path d="M8.94593 4.84917C8.94593 7.16148 7.07722 9.03598 4.77204 9.03598C2.46686 9.03598 0.598145 7.16148 0.598145 4.84917C0.598145 2.53685 2.46686 0.662354 4.77204 0.662354C7.07722 0.662354 8.94593 2.53685 8.94593 4.84917Z" fill="#D0D0D0"/>
<path d="M8.94593 4.84917C8.94593 7.16148 7.07722 9.03598 4.77204 9.03598C2.46686 9.03598 0.598145 7.16148 0.598145 4.84917C0.598145 2.53685 2.46686 0.662354 4.77204 0.662354C7.07722 0.662354 8.94593 2.53685 8.94593 4.84917Z" fill="url(#paint0_linear_4_57)"/>
<path d="M70.1637 4.84917C70.1637 7.16148 68.2949 9.03598 65.9898 9.03598C63.6846 9.03598 61.8159 7.16148 61.8159 4.84917C61.8159 2.53685 63.6846 0.662354 65.9898 0.662354C68.2949 0.662354 70.1637 2.53685 70.1637 4.84917Z" fill="#D0D0D0"/>
<path d="M70.1637 4.84917C70.1637 7.16148 68.2949 9.03598 65.9898 9.03598C63.6846 9.03598 61.8159 7.16148 61.8159 4.84917C61.8159 2.53685 63.6846 0.662354 65.9898 0.662354C68.2949 0.662354 70.1637 2.53685 70.1637 4.84917Z" fill="url(#paint1_linear_4_57)"/>
<path d="M131.38 4.84917C131.38 7.16148 129.512 9.03598 127.207 9.03598C124.901 9.03598 123.033 7.16148 123.033 4.84917C123.033 2.53685 124.901 0.662354 127.207 0.662354C129.512 0.662354 131.38 2.53685 131.38 4.84917Z" fill="#D0D0D0"/>
<path d="M131.38 4.84917C131.38 7.16148 129.512 9.03598 127.207 9.03598C124.901 9.03598 123.033 7.16148 123.033 4.84917C123.033 2.53685 124.901 0.662354 127.207 0.662354C129.512 0.662354 131.38 2.53685 131.38 4.84917Z" fill="url(#paint2_linear_4_57)"/>
<path d="M192.598 4.84917C192.598 7.16148 190.729 9.03598 188.424 9.03598C186.119 9.03598 184.25 7.16148 184.25 4.84917C184.25 2.53685 186.119 0.662354 188.424 0.662354C190.729 0.662354 192.598 2.53685 192.598 4.84917Z" fill="#D0D0D0"/>
<path d="M192.598 4.84917C192.598 7.16148 190.729 9.03598 188.424 9.03598C186.119 9.03598 184.25 7.16148 184.25 4.84917C184.25 2.53685 186.119 0.662354 188.424 0.662354C190.729 0.662354 192.598 2.53685 192.598 4.84917Z" fill="url(#paint3_linear_4_57)"/>
<path d="M8.94593 66.2557C8.94593 68.568 7.07722 70.4425 4.77204 70.4425C2.46686 70.4425 0.598145 68.568 0.598145 66.2557C0.598145 63.9434 2.46686 62.0689 4.77204 62.0689C7.07722 62.0689 8.94593 63.9434 8.94593 66.2557Z" fill="#D0D0D0"/>
<path d="M8.94593 66.2557C8.94593 68.568 7.07722 70.4425 4.77204 70.4425C2.46686 70.4425 0.598145 68.568 0.598145 66.2557C0.598145 63.9434 2.46686 62.0689 4.77204 62.0689C7.07722 62.0689 8.94593 63.9434 8.94593 66.2557Z" fill="url(#paint4_linear_4_57)"/>
<path d="M70.1637 66.2557C70.1637 68.568 68.2949 70.4425 65.9898 70.4425C63.6846 70.4425 61.8159 68.568 61.8159 66.2557C61.8159 63.9434 63.6846 62.0689 65.9898 62.0689C68.2949 62.0689 70.1637 63.9434 70.1637 66.2557Z" fill="#D0D0D0"/>
<path d="M70.1637 66.2557C70.1637 68.568 68.2949 70.4425 65.9898 70.4425C63.6846 70.4425 61.8159 68.568 61.8159 66.2557C61.8159 63.9434 63.6846 62.0689 65.9898 62.0689C68.2949 62.0689 70.1637 63.9434 70.1637 66.2557Z" fill="url(#paint5_linear_4_57)"/>
<path d="M131.38 66.2557C131.38 68.568 129.512 70.4425 127.207 70.4425C124.901 70.4425 123.033 68.568 123.033 66.2557C123.033 63.9434 124.901 62.0689 127.207 62.0689C129.512 62.0689 131.38 63.9434 131.38 66.2557Z" fill="#D0D0D0"/>
<path d="M131.38 66.2557C131.38 68.568 129.512 70.4425 127.207 70.4425C124.901 70.4425 123.033 68.568 123.033 66.2557C123.033 63.9434 124.901 62.0689 127.207 62.0689C129.512 62.0689 131.38 63.9434 131.38 66.2557Z" fill="url(#paint6_linear_4_57)"/>
<path d="M192.598 66.2557C192.598 68.568 190.729 70.4425 188.424 70.4425C186.119 70.4425 184.25 68.568 184.25 66.2557C184.25 63.9434 186.119 62.0689 188.424 62.0689C190.729 62.0689 192.598 63.9434 192.598 66.2557Z" fill="#D0D0D0"/>
<path d="M192.598 66.2557C192.598 68.568 190.729 70.4425 188.424 70.4425C186.119 70.4425 184.25 68.568 184.25 66.2557C184.25 63.9434 186.119 62.0689 188.424 62.0689C190.729 62.0689 192.598 63.9434 192.598 66.2557Z" fill="url(#paint7_linear_4_57)"/>
<path d="M8.94593 127.662C8.94593 129.975 7.07722 131.849 4.77204 131.849C2.46686 131.849 0.598145 129.975 0.598145 127.662C0.598145 125.35 2.46686 123.475 4.77204 123.475C7.07722 123.475 8.94593 125.35 8.94593 127.662Z" fill="#D0D0D0"/>
<path d="M8.94593 127.662C8.94593 129.975 7.07722 131.849 4.77204 131.849C2.46686 131.849 0.598145 129.975 0.598145 127.662C0.598145 125.35 2.46686 123.475 4.77204 123.475C7.07722 123.475 8.94593 125.35 8.94593 127.662Z" fill="url(#paint8_linear_4_57)"/>
<path d="M70.1637 127.662C70.1637 129.975 68.2949 131.849 65.9898 131.849C63.6846 131.849 61.8159 129.975 61.8159 127.662C61.8159 125.35 63.6846 123.475 65.9898 123.475C68.2949 123.475 70.1637 125.35 70.1637 127.662Z" fill="#D0D0D0"/>
<path d="M70.1637 127.662C70.1637 129.975 68.2949 131.849 65.9898 131.849C63.6846 131.849 61.8159 129.975 61.8159 127.662C61.8159 125.35 63.6846 123.475 65.9898 123.475C68.2949 123.475 70.1637 125.35 70.1637 127.662Z" fill="url(#paint9_linear_4_57)"/>
<path d="M131.38 127.662C131.38 129.975 129.512 131.849 127.207 131.849C124.901 131.849 123.033 129.975 123.033 127.662C123.033 125.35 124.901 123.475 127.207 123.475C129.512 123.475 131.38 125.35 131.38 127.662Z" fill="#D0D0D0"/>
<path d="M131.38 127.662C131.38 129.975 129.512 131.849 127.207 131.849C124.901 131.849 123.033 129.975 123.033 127.662C123.033 125.35 124.901 123.475 127.207 123.475C129.512 123.475 131.38 125.35 131.38 127.662Z" fill="url(#paint10_linear_4_57)"/>
<path d="M192.598 127.662C192.598 129.975 190.729 131.849 188.424 131.849C186.119 131.849 184.25 129.975 184.25 127.662C184.25 125.35 186.119 123.475 188.424 123.475C190.729 123.475 192.598 125.35 192.598 127.662Z" fill="#D0D0D0"/>
<path d="M192.598 127.662C192.598 129.975 190.729 131.849 188.424 131.849C186.119 131.849 184.25 129.975 184.25 127.662C184.25 125.35 186.119 123.475 188.424 123.475C190.729 123.475 192.598 125.35 192.598 127.662Z" fill="url(#paint11_linear_4_57)"/>
<path d="M8.94593 189.069C8.94593 191.381 7.07722 193.256 4.77204 193.256C2.46686 193.256 0.598145 191.381 0.598145 189.069C0.598145 186.757 2.46686 184.882 4.77204 184.882C7.07722 184.882 8.94593 186.757 8.94593 189.069Z" fill="#D0D0D0"/>
<path d="M8.94593 189.069C8.94593 191.381 7.07722 193.256 4.77204 193.256C2.46686 193.256 0.598145 191.381 0.598145 189.069C0.598145 186.757 2.46686 184.882 4.77204 184.882C7.07722 184.882 8.94593 186.757 8.94593 189.069Z" fill="url(#paint12_linear_4_57)"/>
<path d="M70.1637 189.069C70.1637 191.381 68.2949 193.256 65.9898 193.256C63.6846 193.256 61.8159 191.381 61.8159 189.069C61.8159 186.757 63.6846 184.882 65.9898 184.882C68.2949 184.882 70.1637 186.757 70.1637 189.069Z" fill="#D0D0D0"/>
<path d="M70.1637 189.069C70.1637 191.381 68.2949 193.256 65.9898 193.256C63.6846 193.256 61.8159 191.381 61.8159 189.069C61.8159 186.757 63.6846 184.882 65.9898 184.882C68.2949 184.882 70.1637 186.757 70.1637 189.069Z" fill="url(#paint13_linear_4_57)"/>
<path d="M131.38 189.069C131.38 191.381 129.512 193.256 127.207 193.256C124.901 193.256 123.033 191.381 123.033 189.069C123.033 186.757 124.901 184.882 127.207 184.882C129.512 184.882 131.38 186.757 131.38 189.069Z" fill="#D0D0D0"/>
<path d="M131.38 189.069C131.38 191.381 129.512 193.256 127.207 193.256C124.901 193.256 123.033 191.381 123.033 189.069C123.033 186.757 124.901 184.882 127.207 184.882C129.512 184.882 131.38 186.757 131.38 189.069Z" fill="url(#paint14_linear_4_57)"/>
<path d="M192.598 189.069C192.598 191.381 190.729 193.256 188.424 193.256C186.119 193.256 184.25 191.381 184.25 189.069C184.25 186.757 186.119 184.882 188.424 184.882C190.729 184.882 192.598 186.757 192.598 189.069Z" fill="#D0D0D0"/>
<path d="M192.598 189.069C192.598 191.381 190.729 193.256 188.424 193.256C186.119 193.256 184.25 191.381 184.25 189.069C184.25 186.757 186.119 184.882 188.424 184.882C190.729 184.882 192.598 186.757 192.598 189.069Z" fill="url(#paint15_linear_4_57)"/>
<path d="M8.94593 250.476C8.94593 252.788 7.07722 254.662 4.77204 254.662C2.46686 254.662 0.598145 252.788 0.598145 250.476C0.598145 248.163 2.46686 246.289 4.77204 246.289C7.07722 246.289 8.94593 248.163 8.94593 250.476Z" fill="#D0D0D0"/>
<path d="M8.94593 250.476C8.94593 252.788 7.07722 254.662 4.77204 254.662C2.46686 254.662 0.598145 252.788 0.598145 250.476C0.598145 248.163 2.46686 246.289 4.77204 246.289C7.07722 246.289 8.94593 248.163 8.94593 250.476Z" fill="url(#paint16_linear_4_57)"/>
<path d="M70.1637 250.476C70.1637 252.788 68.2949 254.662 65.9898 254.662C63.6846 254.662 61.8159 252.788 61.8159 250.476C61.8159 248.163 63.6846 246.289 65.9898 246.289C68.2949 246.289 70.1637 248.163 70.1637 250.476Z" fill="#D0D0D0"/>
<path d="M70.1637 250.476C70.1637 252.788 68.2949 254.662 65.9898 254.662C63.6846 254.662 61.8159 252.788 61.8159 250.476C61.8159 248.163 63.6846 246.289 65.9898 246.289C68.2949 246.289 70.1637 248.163 70.1637 250.476Z" fill="url(#paint17_linear_4_57)"/>
<path d="M131.38 250.476C131.38 252.788 129.512 254.662 127.207 254.662C124.901 254.662 123.033 252.788 123.033 250.476C123.033 248.163 124.901 246.289 127.207 246.289C129.512 246.289 131.38 248.163 131.38 250.476Z" fill="#D0D0D0"/>
<path d="M131.38 250.476C131.38 252.788 129.512 254.662 127.207 254.662C124.901 254.662 123.033 252.788 123.033 250.476C123.033 248.163 124.901 246.289 127.207 246.289C129.512 246.289 131.38 248.163 131.38 250.476Z" fill="url(#paint18_linear_4_57)"/>
<path d="M192.598 250.476C192.598 252.788 190.729 254.662 188.424 254.662C186.119 254.662 184.25 252.788 184.25 250.476C184.25 248.163 186.119 246.289 188.424 246.289C190.729 246.289 192.598 248.163 192.598 250.476Z" fill="#D0D0D0"/>
<path d="M192.598 250.476C192.598 252.788 190.729 254.662 188.424 254.662C186.119 254.662 184.25 252.788 184.25 250.476C184.25 248.163 186.119 246.289 188.424 246.289C190.729 246.289 192.598 248.163 192.598 250.476Z" fill="url(#paint19_linear_4_57)"/>
<defs>
<linearGradient id="paint0_linear_4_57" x1="173.798" y1="3.44591" x2="-15.4664" y2="53.4434" gradientUnits="userSpaceOnUse">
<stop stop-color="#0FA5A3"/>
<stop offset="1" stop-color="#57E6A0"/>
</linearGradient>
<linearGradient id="paint1_linear_4_57" x1="173.798" y1="3.44591" x2="-15.4664" y2="53.4434" gradientUnits="userSpaceOnUse">
<stop stop-color="#0FA5A3"/>
<stop offset="1" stop-color="#57E6A0"/>
</linearGradient>
<linearGradient id="paint2_linear_4_57" x1="173.798" y1="3.44591" x2="-15.4664" y2="53.4434" gradientUnits="userSpaceOnUse">
<stop stop-color="#0FA5A3"/>
<stop offset="1" stop-color="#57E6A0"/>
</linearGradient>
<linearGradient id="paint3_linear_4_57" x1="173.798" y1="3.44591" x2="-15.4664" y2="53.4434" gradientUnits="userSpaceOnUse">
<stop stop-color="#0FA5A3"/>
<stop offset="1" stop-color="#57E6A0"/>
</linearGradient>
<linearGradient id="paint4_linear_4_57" x1="173.798" y1="3.44591" x2="-15.4664" y2="53.4434" gradientUnits="userSpaceOnUse">
<stop stop-color="#0FA5A3"/>
<stop offset="1" stop-color="#57E6A0"/>
</linearGradient>
<linearGradient id="paint5_linear_4_57" x1="173.798" y1="3.44591" x2="-15.4664" y2="53.4434" gradientUnits="userSpaceOnUse">
<stop stop-color="#0FA5A3"/>
<stop offset="1" stop-color="#57E6A0"/>
</linearGradient>
<linearGradient id="paint6_linear_4_57" x1="173.798" y1="3.44591" x2="-15.4664" y2="53.4434" gradientUnits="userSpaceOnUse">
<stop stop-color="#0FA5A3"/>
<stop offset="1" stop-color="#57E6A0"/>
</linearGradient>
<linearGradient id="paint7_linear_4_57" x1="173.798" y1="3.44591" x2="-15.4664" y2="53.4434" gradientUnits="userSpaceOnUse">
<stop stop-color="#0FA5A3"/>
<stop offset="1" stop-color="#57E6A0"/>
</linearGradient>
<linearGradient id="paint8_linear_4_57" x1="173.798" y1="3.44591" x2="-15.4664" y2="53.4434" gradientUnits="userSpaceOnUse">
<stop stop-color="#0FA5A3"/>
<stop offset="1" stop-color="#57E6A0"/>
</linearGradient>
<linearGradient id="paint9_linear_4_57" x1="173.798" y1="3.44591" x2="-15.4664" y2="53.4434" gradientUnits="userSpaceOnUse">
<stop stop-color="#0FA5A3"/>
<stop offset="1" stop-color="#57E6A0"/>
</linearGradient>
<linearGradient id="paint10_linear_4_57" x1="173.798" y1="3.44591" x2="-15.4664" y2="53.4434" gradientUnits="userSpaceOnUse">
<stop stop-color="#0FA5A3"/>
<stop offset="1" stop-color="#57E6A0"/>
</linearGradient>
<linearGradient id="paint11_linear_4_57" x1="173.798" y1="3.44591" x2="-15.4664" y2="53.4434" gradientUnits="userSpaceOnUse">
<stop stop-color="#0FA5A3"/>
<stop offset="1" stop-color="#57E6A0"/>
</linearGradient>
<linearGradient id="paint12_linear_4_57" x1="173.798" y1="3.44591" x2="-15.4664" y2="53.4434" gradientUnits="userSpaceOnUse">
<stop stop-color="#0FA5A3"/>
<stop offset="1" stop-color="#57E6A0"/>
</linearGradient>
<linearGradient id="paint13_linear_4_57" x1="173.798" y1="3.44591" x2="-15.4664" y2="53.4434" gradientUnits="userSpaceOnUse">
<stop stop-color="#0FA5A3"/>
<stop offset="1" stop-color="#57E6A0"/>
</linearGradient>
<linearGradient id="paint14_linear_4_57" x1="173.798" y1="3.44591" x2="-15.4664" y2="53.4434" gradientUnits="userSpaceOnUse">
<stop stop-color="#0FA5A3"/>
<stop offset="1" stop-color="#57E6A0"/>
</linearGradient>
<linearGradient id="paint15_linear_4_57" x1="173.798" y1="3.44591" x2="-15.4664" y2="53.4434" gradientUnits="userSpaceOnUse">
<stop stop-color="#0FA5A3"/>
<stop offset="1" stop-color="#57E6A0"/>
</linearGradient>
<linearGradient id="paint16_linear_4_57" x1="173.798" y1="3.44591" x2="-15.4664" y2="53.4434" gradientUnits="userSpaceOnUse">
<stop stop-color="#0FA5A3"/>
<stop offset="1" stop-color="#57E6A0"/>
</linearGradient>
<linearGradient id="paint17_linear_4_57" x1="173.798" y1="3.44591" x2="-15.4664" y2="53.4434" gradientUnits="userSpaceOnUse">
<stop stop-color="#0FA5A3"/>
<stop offset="1" stop-color="#57E6A0"/>
</linearGradient>
<linearGradient id="paint18_linear_4_57" x1="173.798" y1="3.44591" x2="-15.4664" y2="53.4434" gradientUnits="userSpaceOnUse">
<stop stop-color="#0FA5A3"/>
<stop offset="1" stop-color="#57E6A0"/>
</linearGradient>
<linearGradient id="paint19_linear_4_57" x1="173.798" y1="3.44591" x2="-15.4664" y2="53.4434" gradientUnits="userSpaceOnUse">
<stop stop-color="#0FA5A3"/>
<stop offset="1" stop-color="#57E6A0"/>
</linearGradient>
</defs>
</svg>
