<svg width="152" height="152" viewBox="0 0 152 152" fill="none" xmlns="http://www.w3.org/2000/svg">
<g opacity="0.2">
<mask id="mask0_6_231" style="mask-type:alpha" maskUnits="userSpaceOnUse" x="10" y="2" width="131" height="148">
<path fill-rule="evenodd" clip-rule="evenodd" d="M68.049 4.92377C72.7192 2.22742 78.4732 2.22742 83.1434 4.92377L133.409 33.9449C138.08 36.6412 140.957 41.6243 140.957 47.017V105.059C140.957 110.452 138.08 115.435 133.409 118.131L83.1434 147.152C78.4732 149.849 72.7192 149.849 68.049 147.152L17.783 118.131C13.1128 115.435 10.2358 110.452 10.2358 105.059V47.017C10.2358 41.6243 13.1128 36.6412 17.783 33.9449L68.049 4.92377Z" fill="white"/>
</mask>
<g mask="url(#mask0_6_231)">
<path fill-rule="evenodd" clip-rule="evenodd" d="M100.402 -49.1606L243.247 257.171L244.507 256.583L101.662 -49.748L100.402 -49.1606ZM236.298 257.171L93.4529 -49.1606L94.7126 -49.748L237.557 256.583L236.298 257.171ZM86.5034 -49.1606L229.348 257.171L230.608 256.583L87.7631 -49.748L86.5034 -49.1606ZM222.399 257.171L79.554 -49.1606L80.8136 -49.748L223.658 256.583L222.399 257.171ZM72.6045 -49.1606L215.449 257.171L216.709 256.583L73.8642 -49.748L72.6045 -49.1606ZM208.5 257.171L65.655 -49.1606L66.9147 -49.748L209.759 256.583L208.5 257.171ZM58.7056 -49.1606L201.55 257.171L202.81 256.583L59.9653 -49.748L58.7056 -49.1606ZM194.601 257.171L51.7561 -49.1606L53.0158 -49.748L195.86 256.583L194.601 257.171ZM44.8065 -49.1606L187.651 257.171L188.911 256.583L46.0662 -49.748L44.8065 -49.1606ZM180.702 257.171L37.8571 -49.1606L39.1167 -49.748L181.961 256.583L180.702 257.171ZM30.9076 -49.1606L173.752 257.171L175.012 256.583L32.1673 -49.748L30.9076 -49.1606ZM166.803 257.171L23.9581 -49.1606L25.2178 -49.748L168.062 256.583L166.803 257.171ZM17.0087 -49.1606L159.853 257.171L161.113 256.583L18.2684 -49.748L17.0087 -49.1606ZM152.904 257.171L10.0592 -49.1606L11.3189 -49.748L154.163 256.583L152.904 257.171ZM3.10976 -49.1606L145.954 257.171L147.214 256.583L4.36943 -49.748L3.10976 -49.1606ZM139.005 257.171L-3.83971 -49.1606L-2.58003 -49.748L140.265 256.583L139.005 257.171ZM-10.7893 -49.1606L132.055 257.171L133.315 256.583L-9.52962 -49.748L-10.7893 -49.1606ZM125.106 257.171L-17.7388 -49.1606L-16.4791 -49.748L126.366 256.583L125.106 257.171ZM-24.6882 -49.1606L118.156 257.171L119.416 256.583L-23.4286 -49.748L-24.6882 -49.1606ZM111.207 257.171L-31.6377 -49.1606L-30.378 -49.748L112.467 256.583L111.207 257.171ZM-38.5872 -49.1606L104.257 257.171L105.517 256.583L-37.3275 -49.748L-38.5872 -49.1606ZM97.308 257.171L-45.5366 -49.1606L-44.2769 -49.748L98.5676 256.583L97.308 257.171ZM-52.4861 -49.1606L90.3585 257.171L91.6182 256.583L-51.2264 -49.748L-52.4861 -49.1606ZM83.409 257.171L-59.4355 -49.1606L-58.1759 -49.748L84.6687 256.583L83.409 257.171ZM-66.3851 -49.1606L76.4595 257.171L77.7192 256.583L-65.1255 -49.748L-66.3851 -49.1606ZM-73.3346 -49.1606L69.5101 257.171L70.7698 256.583L-72.0749 -49.748L-73.3346 -49.1606Z" fill="white"/>
</g>
</g>
</svg>
