<?xml version="1.0" encoding="UTF-8"?><svg xmlns="http://www.w3.org/2000/svg" viewBox="0 0 148.08 82.17"><defs><style>.d{fill:#5d5e5e;}</style></defs><g id="a"/><g id="b"><g id="c"><g><g><path class="d" d="M146.5,52.19c-.87,0-1.58-.71-1.58-1.57s.71-1.56,1.58-1.56,1.58,.7,1.58,1.56-.71,1.57-1.58,1.57Zm0-2.96c-.78,0-1.41,.63-1.41,1.39s.63,1.39,1.41,1.39,1.4-.62,1.4-1.39-.63-1.39-1.4-1.39Z"/><path class="d" d="M146.24,51.1c0,.2,.02,.33,.06,.4,.04,.07,.11,.11,.22,.12,.04,0,.07,.02,.07,.05,0,.03-.02,.04-.05,.04-.01,0-.03,0-.06,0-.09,0-.18-.01-.26-.01-.07,0-.13,0-.18,0h-.13l-.11,.02s-.05,0-.06,0c-.04,0-.05-.02-.05-.05,0-.02,.01-.03,.03-.04,.07-.02,.12-.05,.15-.09,.03-.03,.04-.09,.04-.17v-1.33c0-.12-.01-.21-.04-.25-.06-.07-.14-.11-.25-.13-.04,0-.07-.03-.07-.06,0-.03,.01-.04,.04-.04,.01,0,.03,0,.05,0,.08,0,.17,.01,.27,.01,.1,0,.23,0,.38-.02,.18-.01,.3-.02,.37-.02,.2,0,.37,.05,.5,.16,.13,.11,.2,.24,.2,.41,0,.1-.03,.2-.08,.28-.06,.08-.14,.15-.24,.19-.02,0-.03,.02-.03,.03,0,0,0,.02,.02,.04,0,.01,.03,.04,.04,.07l.14,.25,.16,.28c.06,.1,.11,.16,.15,.2,.05,.04,.09,.05,.15,.05,.02,0,.05,0,.07,0,.01,0,.03,0,.04,0,.02,0,.03,.01,.03,.04,0,.03-.04,.07-.13,.1-.09,.04-.16,.06-.23,.06-.11,0-.21-.05-.3-.16-.09-.11-.21-.3-.35-.59-.06-.12-.1-.19-.14-.22-.04-.03-.1-.04-.18-.04h-.17s-.02,.04-.02,.09v.31Zm0-1.21v.54c0,.06,0,.11,.03,.12,.02,.02,.06,.03,.12,.03,.19,0,.3,0,.35-.01,.05,0,.09-.03,.13-.06,.07-.06,.11-.16,.11-.28,0-.16-.05-.29-.16-.39-.1-.1-.23-.15-.39-.15-.07,0-.12,.01-.15,.04-.03,.03-.04,.09-.04,.16Z"/></g><g><g><path class="d" d="M44.27,77.27h1.82c1.1,0,1.83,.58,1.83,1.53h0c0,1.06-.88,1.59-1.91,1.59h-1.18v1.7h-.55v-4.82Zm1.76,2.62c.81,0,1.33-.43,1.33-1.06h0c0-.7-.52-1.06-1.31-1.06h-1.23v2.12h1.21Z"/><path class="d" d="M50.63,77.23h.51l2.22,4.85h-.59l-.57-1.27h-2.65l-.58,1.27h-.57l2.22-4.85Zm1.36,3.09l-1.11-2.46-1.11,2.46h2.22Z"/><path class="d" d="M54.73,77.27h2.1c.6,0,1.08,.18,1.38,.48,.24,.24,.37,.57,.37,.95v.02c0,.8-.56,1.27-1.32,1.4l1.5,1.97h-.67l-1.41-1.87h-1.39v1.87h-.55v-4.82Zm2.05,2.46c.73,0,1.25-.37,1.25-.99h0c0-.61-.46-.97-1.25-.97h-1.5v1.95h1.5Z"/><path class="d" d="M61.97,77.23h.51l2.22,4.85h-.59l-.57-1.27h-2.65l-.58,1.27h-.56l2.22-4.85Zm1.35,3.09l-1.11-2.46-1.11,2.46h2.22Z"/><path class="d" d="M66.07,77.27h.56l1.77,2.63,1.78-2.63h.56v4.82h-.55v-3.9l-1.78,2.58h-.03l-1.77-2.57v3.9h-.54v-4.82Z"/><path class="d" d="M72.51,77.27h3.52v.5h-2.97v1.65h2.66v.5h-2.66v1.68h3.01v.5h-3.56v-4.82Zm2.04-1.42l.55,.25-.78,.74h-.43l.66-1Z"/><path class="d" d="M77.58,77.27h1.69c1.53,0,2.59,1.04,2.59,2.4h0c0,1.37-1.06,2.42-2.59,2.42h-1.69v-4.82Zm1.69,4.32c1.23,0,2.02-.83,2.02-1.89h0c0-1.08-.79-1.92-2.02-1.92h-1.14v3.81h1.14Z"/><path class="d" d="M83.48,77.27h.55v4.82h-.55v-4.82Z"/><path class="d" d="M85.64,79.69h0c0-1.38,1.03-2.51,2.46-2.51,.88,0,1.41,.31,1.9,.76l-.38,.4c-.41-.38-.87-.66-1.53-.66-1.08,0-1.89,.87-1.89,1.98h0c0,1.12,.82,2,1.89,2,.67,0,1.11-.25,1.57-.69l.36,.35c-.51,.51-1.07,.85-1.95,.85-1.41,0-2.44-1.1-2.44-2.48Z"/><path class="d" d="M93.2,77.23h.51l2.22,4.85h-.59l-.57-1.27h-2.65l-.58,1.27h-.56l2.22-4.85Zm1.36,3.09l-1.11-2.46-1.12,2.46h2.23Z"/><path class="d" d="M97.29,77.27h.55v4.32h2.74v.5h-3.29v-4.82Z"/></g><g><path class="d" d="M23.01,48.83c.1,.05,.21,.1,.31,.14,.29,.11,.58,.16,.88,.16s.59-.06,.88-.18c.29-.12,.55-.29,.78-.52-2.74-2.66-6.5-4.31-10.65-4.31-8.4,0-15.21,6.73-15.21,15.03s6.81,15.04,15.21,15.04c4.86,0,9.18-2.25,11.96-5.76-.36-.84-.64-1.73-.85-2.68-2.28,3.71-6.41,6.19-11.11,6.19-7.18,0-13-5.75-13-12.85s5.82-12.85,13-12.85c2.93,0,5.62,.96,7.8,2.58Z"/><path class="d" d="M52.57,44.62c-.3,0-.59,.05-.85,.16-.27,.1-.5,.25-.69,.45-.2,.19-.35,.42-.46,.67-.12,.25-.17,.53-.17,.83v14.66c0,6.99-3.81,10.55-9.75,10.55s-9.92-3.93-9.92-10.76v-14.45c0-.3-.06-.58-.17-.83-.11-.26-.27-.48-.46-.67-.19-.19-.43-.34-.69-.45-.26-.11-.55-.16-.85-.16v16.92c0,8.1,4.98,12.49,12.01,12.49s12.01-4.43,12.01-12.74v-16.67"/><path class="d" d="M64.29,46.61h5.53c.28,0,.55-.05,.8-.15,.25-.1,.47-.24,.65-.42,.18-.18,.32-.39,.43-.63,.11-.24,.16-.5,.16-.78h-17.32c0,.28,.05,.54,.16,.78,.11,.24,.25,.45,.43,.63,.19,.18,.4,.32,.65,.42,.25,.1,.52,.15,.8,.15h5.52v26.97c.31,0,.59-.06,.86-.17,.26-.12,.49-.27,.69-.47,.2-.19,.35-.43,.46-.7,.11-.26,.17-.55,.17-.86v-24.77Z"/><path class="d" d="M95.65,60.01v11.37c0,.3,.05,.59,.16,.86,.11,.27,.26,.5,.46,.7,.2,.2,.43,.35,.7,.47,.26,.11,.55,.17,.86,.17v-28.96c-.31,0-.6,.05-.87,.16-.27,.11-.51,.26-.71,.46-.2,.19-.34,.41-.46,.67-.12,.26-.15,.52-.15,.82v11.29h-18.75v-11.29c0-.3-.03-.55-.15-.82-.12-.26-.26-.48-.45-.67-.2-.2-.43-.35-.71-.46-.27-.11-.56-.16-.87-.16v28.96c.31,0,.59-.06,.86-.17,.26-.12,.5-.27,.69-.47,.2-.19,.35-.43,.46-.7,.11-.26,.17-.55,.17-.86v-11.37h18.75Z"/><path class="d" d="M99.33,44.62l12.55,17.5v11.46c.31,0,.6-.06,.86-.17,.26-.12,.49-.27,.69-.47,.19-.19,.35-.43,.46-.7,.11-.26,.17-.55,.17-.86v-9.3l12.55-17.46c-.35-.14-.71-.22-1.07-.21-.36,0-.69,.08-1.02,.2-.32,.13-.61,.32-.86,.58-.13,.12-.24,.25-.34,.4l-10.32,14.58-10.24-14.53c-.1-.15-.22-.29-.35-.42-.27-.26-.57-.47-.9-.6-.34-.13-.7-.21-1.07-.22-.38,0-.75,.07-1.12,.22h0Z"/><path class="d" d="M124.78,69.35c.08-.08,.18-.15,.27-.22,.26-.18,.54-.31,.84-.39,.3-.07,.61-.09,.93-.04,.32,.05,.62,.16,.91,.33h.01c2.67,2.05,5.34,3.02,8.96,3.02,4.4,0,7.41-2.44,7.41-5.75v-.08c0-3.06-1.63-4.84-8.29-6.17-7.03-1.41-9.88-3.77-9.88-8.15v-.08c0-4.3,3.98-7.62,9.42-7.62,4.27,0,7.08,1.16,10.04,3.52-.25,.25-.53,.44-.84,.57-.31,.13-.63,.2-.95,.2-.32,0-.64-.06-.95-.18-.12-.04-.23-.1-.33-.16-2.21-1.42-4.48-2-7.05-2-4.31,0-7.16,2.44-7.16,5.46v.08c0,3.07,1.59,4.93,8.54,6.33,6.78,1.37,9.62,3.76,9.62,7.98v.08c0,4.67-4.06,7.9-9.71,7.9-4.69,0-8.29-1.53-11.8-4.63h0Z"/></g><path class="d" d="M79.88,8.04c-.09-.09-.21-.14-.34-.14s-.25,.05-.34,.14l-12.03,11.89c-1.27,1.25-1.97,2.92-1.97,4.69,0,.56,.07,1.1,.2,1.62l-5.23-5.17,11.69-11.56c1.27-1.25,1.97-2.92,1.97-4.69s-.7-3.44-1.97-4.69c-.18-.18-.5-.18-.68,0l-12.03,11.89c-2.51,2.48-2.61,6.45-.31,9.05-1.07,1.21-1.65,2.74-1.65,4.36,0,1.77,.7,3.44,1.97,4.69l12.03,11.89c1.09,1.07,1.88,2.78,1.88,4.3,0,3.44-1.81,4.83-1.89,4.85,.12,0,.6-.35,.69-.44,1.27-1.25,1.97-2.92,1.97-4.69,0-1.62-.59-3.15-1.66-4.36,1.08-1.21,1.66-2.74,1.66-4.36,0-1.77-.7-3.44-1.97-4.69l-3.69-3.64,11.7-11.56c2.61-2.59,2.62-6.8,0-9.39Zm-21.72,8.68c0-1.53,.6-2.95,1.68-4.03L71.53,1.14c.88,1.03,1.37,2.32,1.37,3.68,0,1.52-.6,2.95-1.69,4.03l-11.67,11.54c-.88-1.03-1.36-2.32-1.36-3.68Zm0,8.72c0-1.36,.48-2.65,1.36-3.68l7.33,7.25c-1.06,1.21-1.64,2.73-1.64,4.35,0,.55,.08,1.1,.21,1.62l-5.57-5.5c-1.08-1.08-1.68-2.5-1.68-4.02Zm14.73,11.89c0,1.36-.48,2.65-1.37,3.68l-3.68-3.64c-1.08-1.08-1.68-2.5-1.68-4.02,0-1.36,.48-2.65,1.37-3.68l3.67,3.63c1.09,1.07,1.69,2.51,1.69,4.03Zm-5.36-9.02c-.88-1.03-1.36-2.32-1.36-3.68,0-1.52,.6-2.95,1.69-4.02l11.68-11.54c1.92,2.24,1.81,5.6-.32,7.71l-11.68,11.54Z"/></g></g></g></g></svg>