<svg width="410" height="448" viewBox="0 0 410 448" fill="none" xmlns="http://www.w3.org/2000/svg">
<g opacity="0.34">
<g opacity="0.3">
<rect x="410" y="161.188" width="7.04511" height="6.02394" rx="3.01197" transform="rotate(-180 410 161.188)" fill="#51394F"/>
<rect x="388.865" y="161.188" width="7.04511" height="6.02394" rx="3.01197" transform="rotate(-180 388.865 161.188)" fill="#51394F"/>
<rect x="367.729" y="161.188" width="7.04511" height="6.02394" rx="3.01197" transform="rotate(-180 367.729 161.188)" fill="#51394F"/>
<rect x="346.594" y="161.188" width="7.04511" height="6.02394" rx="3.01197" transform="rotate(-180 346.594 161.188)" fill="#51394F"/>
<rect x="325.459" y="161.188" width="7.04511" height="6.02394" rx="3.01197" transform="rotate(-180 325.459 161.188)" fill="#51394F"/>
<rect x="304.323" y="161.188" width="7.04511" height="6.02394" rx="3.01197" transform="rotate(-180 304.323 161.188)" fill="#51394F"/>
<rect x="283.188" y="161.188" width="7.04511" height="6.02394" rx="3.01197" transform="rotate(-180 283.188 161.188)" fill="#51394F"/>
<rect x="262.053" y="161.188" width="7.04511" height="6.02394" rx="3.01197" transform="rotate(-180 262.053 161.188)" fill="#51394F"/>
<rect x="240.917" y="161.188" width="7.04511" height="6.02394" rx="3.01197" transform="rotate(-180 240.917 161.188)" fill="#51394F"/>
<rect x="219.782" y="161.188" width="7.04511" height="6.02394" rx="3.01197" transform="rotate(-180 219.782 161.188)" fill="#51394F"/>
<rect x="410" y="139.501" width="7.04511" height="6.02394" rx="3.01197" transform="rotate(-180 410 139.501)" fill="#51394F"/>
<rect x="388.865" y="139.501" width="7.04511" height="6.02394" rx="3.01197" transform="rotate(-180 388.865 139.501)" fill="#51394F"/>
<rect x="367.729" y="139.501" width="7.04511" height="6.02394" rx="3.01197" transform="rotate(-180 367.729 139.501)" fill="#51394F"/>
<rect x="346.594" y="139.501" width="7.04511" height="6.02394" rx="3.01197" transform="rotate(-180 346.594 139.501)" fill="#51394F"/>
<rect x="325.459" y="139.501" width="7.04511" height="6.02394" rx="3.01197" transform="rotate(-180 325.459 139.501)" fill="#51394F"/>
<rect x="304.323" y="139.501" width="7.04511" height="6.02394" rx="3.01197" transform="rotate(-180 304.323 139.501)" fill="#51394F"/>
<rect x="283.188" y="139.501" width="7.04511" height="6.02394" rx="3.01197" transform="rotate(-180 283.188 139.501)" fill="#51394F"/>
<rect x="262.053" y="139.501" width="7.04511" height="6.02394" rx="3.01197" transform="rotate(-180 262.053 139.501)" fill="#51394F"/>
<rect x="240.917" y="139.501" width="7.04511" height="6.02394" rx="3.01197" transform="rotate(-180 240.917 139.501)" fill="#51394F"/>
<rect x="219.782" y="139.501" width="7.04511" height="6.02394" rx="3.01197" transform="rotate(-180 219.782 139.501)" fill="#51394F"/>
<rect x="410" y="117.213" width="7.04511" height="6.02394" rx="3.01197" transform="rotate(-180 410 117.213)" fill="#51394F"/>
<rect x="388.865" y="117.213" width="7.04511" height="6.02394" rx="3.01197" transform="rotate(-180 388.865 117.213)" fill="#51394F"/>
<rect x="367.729" y="117.213" width="7.04511" height="6.02394" rx="3.01197" transform="rotate(-180 367.729 117.213)" fill="#51394F"/>
<rect x="346.594" y="117.213" width="7.04511" height="6.02394" rx="3.01197" transform="rotate(-180 346.594 117.213)" fill="#51394F"/>
<rect x="325.459" y="117.213" width="7.04511" height="6.02394" rx="3.01197" transform="rotate(-180 325.459 117.213)" fill="#51394F"/>
<rect x="304.323" y="117.213" width="7.04511" height="6.02394" rx="3.01197" transform="rotate(-180 304.323 117.213)" fill="#51394F"/>
<rect x="283.188" y="117.213" width="7.04511" height="6.02394" rx="3.01197" transform="rotate(-180 283.188 117.213)" fill="#51394F"/>
<rect x="262.053" y="117.213" width="7.04511" height="6.02394" rx="3.01197" transform="rotate(-180 262.053 117.213)" fill="#51394F"/>
<rect x="240.917" y="117.213" width="7.04511" height="6.02394" rx="3.01197" transform="rotate(-180 240.917 117.213)" fill="#51394F"/>
<rect x="219.782" y="117.213" width="7.04511" height="6.02394" rx="3.01197" transform="rotate(-180 219.782 117.213)" fill="#51394F"/>
<rect x="410" y="227.451" width="7.04511" height="6.02394" rx="3.01197" transform="rotate(-180 410 227.451)" fill="#51394F"/>
<rect x="388.865" y="227.451" width="7.04511" height="6.02394" rx="3.01197" transform="rotate(-180 388.865 227.451)" fill="#51394F"/>
<rect x="367.729" y="227.451" width="7.04511" height="6.02394" rx="3.01197" transform="rotate(-180 367.729 227.451)" fill="#51394F"/>
<rect x="346.594" y="227.451" width="7.04511" height="6.02394" rx="3.01197" transform="rotate(-180 346.594 227.451)" fill="#51394F"/>
<rect x="325.459" y="227.451" width="7.04511" height="6.02394" rx="3.01197" transform="rotate(-180 325.459 227.451)" fill="#51394F"/>
<rect x="304.323" y="227.451" width="7.04511" height="6.02394" rx="3.01197" transform="rotate(-180 304.323 227.451)" fill="#51394F"/>
<rect x="283.188" y="227.451" width="7.04511" height="6.02394" rx="3.01197" transform="rotate(-180 283.188 227.451)" fill="#51394F"/>
<rect x="262.053" y="227.451" width="7.04511" height="6.02394" rx="3.01197" transform="rotate(-180 262.053 227.451)" fill="#51394F"/>
<rect x="240.917" y="227.451" width="7.04511" height="6.02394" rx="3.01197" transform="rotate(-180 240.917 227.451)" fill="#51394F"/>
<rect x="219.782" y="227.451" width="7.04511" height="6.02394" rx="3.01197" transform="rotate(-180 219.782 227.451)" fill="#51394F"/>
<rect x="410" y="205.765" width="7.04511" height="6.02394" rx="3.01197" transform="rotate(-180 410 205.765)" fill="#51394F"/>
<rect x="388.865" y="205.765" width="7.04511" height="6.02394" rx="3.01197" transform="rotate(-180 388.865 205.765)" fill="#51394F"/>
<rect x="367.729" y="205.765" width="7.04511" height="6.02394" rx="3.01197" transform="rotate(-180 367.729 205.765)" fill="#51394F"/>
<rect x="346.594" y="205.765" width="7.04511" height="6.02394" rx="3.01197" transform="rotate(-180 346.594 205.765)" fill="#51394F"/>
<rect x="325.459" y="205.765" width="7.04511" height="6.02394" rx="3.01197" transform="rotate(-180 325.459 205.765)" fill="#51394F"/>
<rect x="304.323" y="205.765" width="7.04511" height="6.02394" rx="3.01197" transform="rotate(-180 304.323 205.765)" fill="#51394F"/>
<rect x="283.188" y="205.765" width="7.04511" height="6.02394" rx="3.01197" transform="rotate(-180 283.188 205.765)" fill="#51394F"/>
<rect x="262.053" y="205.765" width="7.04511" height="6.02394" rx="3.01197" transform="rotate(-180 262.053 205.765)" fill="#51394F"/>
<rect x="240.917" y="205.765" width="7.04511" height="6.02394" rx="3.01197" transform="rotate(-180 240.917 205.765)" fill="#51394F"/>
<rect x="219.782" y="205.765" width="7.04511" height="6.02394" rx="3.01197" transform="rotate(-180 219.782 205.765)" fill="#51394F"/>
<rect x="410" y="183.476" width="7.04511" height="6.02394" rx="3.01197" transform="rotate(-180 410 183.476)" fill="#51394F"/>
<rect x="388.865" y="183.476" width="7.04511" height="6.02394" rx="3.01197" transform="rotate(-180 388.865 183.476)" fill="#51394F"/>
<rect x="367.729" y="183.476" width="7.04511" height="6.02394" rx="3.01197" transform="rotate(-180 367.729 183.476)" fill="#51394F"/>
<rect x="346.594" y="183.476" width="7.04511" height="6.02394" rx="3.01197" transform="rotate(-180 346.594 183.476)" fill="#51394F"/>
<rect x="325.459" y="183.476" width="7.04511" height="6.02394" rx="3.01197" transform="rotate(-180 325.459 183.476)" fill="#51394F"/>
<rect x="304.323" y="183.476" width="7.04511" height="6.02394" rx="3.01197" transform="rotate(-180 304.323 183.476)" fill="#51394F"/>
<rect x="283.188" y="183.476" width="7.04511" height="6.02394" rx="3.01197" transform="rotate(-180 283.188 183.476)" fill="#51394F"/>
<rect x="262.053" y="183.476" width="7.04511" height="6.02394" rx="3.01197" transform="rotate(-180 262.053 183.476)" fill="#51394F"/>
<rect x="240.917" y="183.476" width="7.04511" height="6.02394" rx="3.01197" transform="rotate(-180 240.917 183.476)" fill="#51394F"/>
<rect x="219.782" y="183.476" width="7.04511" height="6.02394" rx="3.01197" transform="rotate(-180 219.782 183.476)" fill="#51394F"/>
<rect x="410" y="293.714" width="7.04511" height="6.02394" rx="3.01197" transform="rotate(-180 410 293.714)" fill="#51394F"/>
<rect x="388.865" y="293.714" width="7.04511" height="6.02394" rx="3.01197" transform="rotate(-180 388.865 293.714)" fill="#51394F"/>
<rect x="367.729" y="293.714" width="7.04511" height="6.02394" rx="3.01197" transform="rotate(-180 367.729 293.714)" fill="#51394F"/>
<rect x="346.594" y="293.714" width="7.04511" height="6.02394" rx="3.01197" transform="rotate(-180 346.594 293.714)" fill="#51394F"/>
<rect x="325.459" y="293.714" width="7.04511" height="6.02394" rx="3.01197" transform="rotate(-180 325.459 293.714)" fill="#51394F"/>
<rect x="304.323" y="293.714" width="7.04511" height="6.02394" rx="3.01197" transform="rotate(-180 304.323 293.714)" fill="#51394F"/>
<rect x="283.188" y="293.714" width="7.04511" height="6.02394" rx="3.01197" transform="rotate(-180 283.188 293.714)" fill="#51394F"/>
<rect x="262.053" y="293.714" width="7.04511" height="6.02394" rx="3.01197" transform="rotate(-180 262.053 293.714)" fill="#51394F"/>
<rect x="240.917" y="293.714" width="7.04511" height="6.02394" rx="3.01197" transform="rotate(-180 240.917 293.714)" fill="#51394F"/>
<rect x="219.782" y="293.714" width="7.04511" height="6.02394" rx="3.01197" transform="rotate(-180 219.782 293.714)" fill="#51394F"/>
<rect x="410" y="271.426" width="7.04511" height="6.02394" rx="3.01197" transform="rotate(-180 410 271.426)" fill="#51394F"/>
<rect x="388.865" y="271.426" width="7.04511" height="6.02394" rx="3.01197" transform="rotate(-180 388.865 271.426)" fill="#51394F"/>
<rect x="367.729" y="271.426" width="7.04511" height="6.02394" rx="3.01197" transform="rotate(-180 367.729 271.426)" fill="#51394F"/>
<rect x="346.594" y="271.426" width="7.04511" height="6.02394" rx="3.01197" transform="rotate(-180 346.594 271.426)" fill="#51394F"/>
<rect x="325.459" y="271.426" width="7.04511" height="6.02394" rx="3.01197" transform="rotate(-180 325.459 271.426)" fill="#51394F"/>
<rect x="304.323" y="271.426" width="7.04511" height="6.02394" rx="3.01197" transform="rotate(-180 304.323 271.426)" fill="#51394F"/>
<rect x="283.188" y="271.426" width="7.04511" height="6.02394" rx="3.01197" transform="rotate(-180 283.188 271.426)" fill="#51394F"/>
<rect x="262.053" y="271.426" width="7.04511" height="6.02394" rx="3.01197" transform="rotate(-180 262.053 271.426)" fill="#51394F"/>
<rect x="240.917" y="271.426" width="7.04511" height="6.02394" rx="3.01197" transform="rotate(-180 240.917 271.426)" fill="#51394F"/>
<rect x="219.782" y="271.426" width="7.04511" height="6.02394" rx="3.01197" transform="rotate(-180 219.782 271.426)" fill="#51394F"/>
<rect x="410" y="249.739" width="7.04511" height="6.02394" rx="3.01197" transform="rotate(-180 410 249.739)" fill="#51394F"/>
<rect x="388.865" y="249.739" width="7.04511" height="6.02394" rx="3.01197" transform="rotate(-180 388.865 249.739)" fill="#51394F"/>
<rect x="367.729" y="249.739" width="7.04511" height="6.02394" rx="3.01197" transform="rotate(-180 367.729 249.739)" fill="#51394F"/>
<rect x="346.594" y="249.739" width="7.04511" height="6.02394" rx="3.01197" transform="rotate(-180 346.594 249.739)" fill="#51394F"/>
<rect x="325.459" y="249.739" width="7.04511" height="6.02394" rx="3.01197" transform="rotate(-180 325.459 249.739)" fill="#51394F"/>
<rect x="304.323" y="249.739" width="7.04511" height="6.02394" rx="3.01197" transform="rotate(-180 304.323 249.739)" fill="#51394F"/>
<rect x="283.188" y="249.739" width="7.04511" height="6.02394" rx="3.01197" transform="rotate(-180 283.188 249.739)" fill="#51394F"/>
<rect x="262.053" y="249.739" width="7.04511" height="6.02394" rx="3.01197" transform="rotate(-180 262.053 249.739)" fill="#51394F"/>
<rect x="240.917" y="249.739" width="7.04511" height="6.02394" rx="3.01197" transform="rotate(-180 240.917 249.739)" fill="#51394F"/>
<rect x="219.782" y="249.739" width="7.04511" height="6.02394" rx="3.01197" transform="rotate(-180 219.782 249.739)" fill="#51394F"/>
<rect x="410" y="359.375" width="7.04511" height="6.02394" rx="3.01197" transform="rotate(-180 410 359.375)" fill="#51394F"/>
<rect x="388.865" y="359.375" width="7.04511" height="6.02394" rx="3.01197" transform="rotate(-180 388.865 359.375)" fill="#51394F"/>
<rect x="367.729" y="359.375" width="7.04511" height="6.02394" rx="3.01197" transform="rotate(-180 367.729 359.375)" fill="#51394F"/>
<rect x="346.594" y="359.375" width="7.04511" height="6.02394" rx="3.01197" transform="rotate(-180 346.594 359.375)" fill="#51394F"/>
<rect x="325.459" y="359.375" width="7.04511" height="6.02394" rx="3.01197" transform="rotate(-180 325.459 359.375)" fill="#51394F"/>
<rect x="304.323" y="359.375" width="7.04511" height="6.02394" rx="3.01197" transform="rotate(-180 304.323 359.375)" fill="#51394F"/>
<rect x="283.188" y="359.375" width="7.04511" height="6.02394" rx="3.01197" transform="rotate(-180 283.188 359.375)" fill="#51394F"/>
<rect x="262.053" y="359.375" width="7.04511" height="6.02394" rx="3.01197" transform="rotate(-180 262.053 359.375)" fill="#51394F"/>
<rect x="240.917" y="359.375" width="7.04511" height="6.02394" rx="3.01197" transform="rotate(-180 240.917 359.375)" fill="#51394F"/>
<rect x="219.782" y="359.375" width="7.04511" height="6.02394" rx="3.01197" transform="rotate(-180 219.782 359.375)" fill="#51394F"/>
<rect x="410" y="337.689" width="7.04511" height="6.02394" rx="3.01197" transform="rotate(-180 410 337.689)" fill="#51394F"/>
<rect x="388.865" y="337.689" width="7.04511" height="6.02394" rx="3.01197" transform="rotate(-180 388.865 337.689)" fill="#51394F"/>
<rect x="367.729" y="337.689" width="7.04511" height="6.02394" rx="3.01197" transform="rotate(-180 367.729 337.689)" fill="#51394F"/>
<rect x="346.594" y="337.689" width="7.04511" height="6.02394" rx="3.01197" transform="rotate(-180 346.594 337.689)" fill="#51394F"/>
<rect x="325.459" y="337.689" width="7.04511" height="6.02394" rx="3.01197" transform="rotate(-180 325.459 337.689)" fill="#51394F"/>
<rect x="304.323" y="337.689" width="7.04511" height="6.02394" rx="3.01197" transform="rotate(-180 304.323 337.689)" fill="#51394F"/>
<rect x="283.188" y="337.689" width="7.04511" height="6.02394" rx="3.01197" transform="rotate(-180 283.188 337.689)" fill="#51394F"/>
<rect x="262.053" y="337.689" width="7.04511" height="6.02394" rx="3.01197" transform="rotate(-180 262.053 337.689)" fill="#51394F"/>
<rect x="240.917" y="337.689" width="7.04511" height="6.02394" rx="3.01197" transform="rotate(-180 240.917 337.689)" fill="#51394F"/>
<rect x="219.782" y="337.689" width="7.04511" height="6.02394" rx="3.01197" transform="rotate(-180 219.782 337.689)" fill="#51394F"/>
<rect x="410" y="315.4" width="7.04511" height="6.02394" rx="3.01197" transform="rotate(-180 410 315.4)" fill="#51394F"/>
<rect x="388.865" y="315.4" width="7.04511" height="6.02394" rx="3.01197" transform="rotate(-180 388.865 315.4)" fill="#51394F"/>
<rect x="367.729" y="315.4" width="7.04511" height="6.02394" rx="3.01197" transform="rotate(-180 367.729 315.4)" fill="#51394F"/>
<rect x="346.594" y="315.4" width="7.04511" height="6.02394" rx="3.01197" transform="rotate(-180 346.594 315.4)" fill="#51394F"/>
<rect x="325.459" y="315.4" width="7.04511" height="6.02394" rx="3.01197" transform="rotate(-180 325.459 315.4)" fill="#51394F"/>
<rect x="304.323" y="315.4" width="7.04511" height="6.02394" rx="3.01197" transform="rotate(-180 304.323 315.4)" fill="#51394F"/>
<rect x="283.188" y="315.4" width="7.04511" height="6.02394" rx="3.01197" transform="rotate(-180 283.188 315.4)" fill="#51394F"/>
<rect x="262.053" y="315.4" width="7.04511" height="6.02394" rx="3.01197" transform="rotate(-180 262.053 315.4)" fill="#51394F"/>
<rect x="240.917" y="315.4" width="7.04511" height="6.02394" rx="3.01197" transform="rotate(-180 240.917 315.4)" fill="#51394F"/>
<rect x="219.782" y="315.4" width="7.04511" height="6.02394" rx="3.01197" transform="rotate(-180 219.782 315.4)" fill="#51394F"/>
<rect x="410" y="425.638" width="7.04511" height="6.02394" rx="3.01197" transform="rotate(-180 410 425.638)" fill="#51394F"/>
<rect x="388.865" y="425.638" width="7.04511" height="6.02394" rx="3.01197" transform="rotate(-180 388.865 425.638)" fill="#51394F"/>
<rect x="367.729" y="425.638" width="7.04511" height="6.02394" rx="3.01197" transform="rotate(-180 367.729 425.638)" fill="#51394F"/>
<rect x="346.594" y="425.638" width="7.04511" height="6.02394" rx="3.01197" transform="rotate(-180 346.594 425.638)" fill="#51394F"/>
<rect x="325.459" y="425.638" width="7.04511" height="6.02394" rx="3.01197" transform="rotate(-180 325.459 425.638)" fill="#51394F"/>
<rect x="304.323" y="425.638" width="7.04511" height="6.02394" rx="3.01197" transform="rotate(-180 304.323 425.638)" fill="#51394F"/>
<rect x="283.188" y="425.638" width="7.04511" height="6.02394" rx="3.01197" transform="rotate(-180 283.188 425.638)" fill="#51394F"/>
<rect x="262.053" y="425.638" width="7.04511" height="6.02394" rx="3.01197" transform="rotate(-180 262.053 425.638)" fill="#51394F"/>
<rect x="240.917" y="425.638" width="7.04511" height="6.02394" rx="3.01197" transform="rotate(-180 240.917 425.638)" fill="#51394F"/>
<rect x="219.782" y="425.638" width="7.04511" height="6.02394" rx="3.01197" transform="rotate(-180 219.782 425.638)" fill="#51394F"/>
<rect x="410" y="403.35" width="7.04511" height="6.02394" rx="3.01197" transform="rotate(-180 410 403.35)" fill="#51394F"/>
<rect x="388.865" y="403.35" width="7.04511" height="6.02394" rx="3.01197" transform="rotate(-180 388.865 403.35)" fill="#51394F"/>
<rect x="367.729" y="403.35" width="7.04511" height="6.02394" rx="3.01197" transform="rotate(-180 367.729 403.35)" fill="#51394F"/>
<rect x="346.594" y="403.35" width="7.04511" height="6.02394" rx="3.01197" transform="rotate(-180 346.594 403.35)" fill="#51394F"/>
<rect x="325.459" y="403.35" width="7.04511" height="6.02394" rx="3.01197" transform="rotate(-180 325.459 403.35)" fill="#51394F"/>
<rect x="304.323" y="403.35" width="7.04511" height="6.02394" rx="3.01197" transform="rotate(-180 304.323 403.35)" fill="#51394F"/>
<rect x="283.188" y="403.35" width="7.04511" height="6.02394" rx="3.01197" transform="rotate(-180 283.188 403.35)" fill="#51394F"/>
<rect x="262.053" y="403.35" width="7.04511" height="6.02394" rx="3.01197" transform="rotate(-180 262.053 403.35)" fill="#51394F"/>
<rect x="240.917" y="403.35" width="7.04511" height="6.02394" rx="3.01197" transform="rotate(-180 240.917 403.35)" fill="#51394F"/>
<rect x="219.782" y="403.35" width="7.04511" height="6.02394" rx="3.01197" transform="rotate(-180 219.782 403.35)" fill="#51394F"/>
<rect x="410" y="381.664" width="7.04511" height="6.02394" rx="3.01197" transform="rotate(-180 410 381.664)" fill="#51394F"/>
<rect x="388.865" y="381.664" width="7.04511" height="6.02394" rx="3.01197" transform="rotate(-180 388.865 381.664)" fill="#51394F"/>
<rect x="367.729" y="381.664" width="7.04511" height="6.02394" rx="3.01197" transform="rotate(-180 367.729 381.664)" fill="#51394F"/>
<rect x="346.594" y="381.664" width="7.04511" height="6.02394" rx="3.01197" transform="rotate(-180 346.594 381.664)" fill="#51394F"/>
<rect x="325.459" y="381.664" width="7.04511" height="6.02394" rx="3.01197" transform="rotate(-180 325.459 381.664)" fill="#51394F"/>
<rect x="304.323" y="381.664" width="7.04511" height="6.02394" rx="3.01197" transform="rotate(-180 304.323 381.664)" fill="#51394F"/>
<rect x="283.188" y="381.664" width="7.04511" height="6.02394" rx="3.01197" transform="rotate(-180 283.188 381.664)" fill="#51394F"/>
<rect x="262.053" y="381.664" width="7.04511" height="6.02394" rx="3.01197" transform="rotate(-180 262.053 381.664)" fill="#51394F"/>
<rect x="240.917" y="381.664" width="7.04511" height="6.02394" rx="3.01197" transform="rotate(-180 240.917 381.664)" fill="#51394F"/>
<rect x="219.782" y="381.664" width="7.04511" height="6.02394" rx="3.01197" transform="rotate(-180 219.782 381.664)" fill="#51394F"/>
<rect x="410" y="447.324" width="7.04511" height="6.02394" rx="3.01197" transform="rotate(-180 410 447.324)" fill="#51394F"/>
<rect x="388.865" y="447.324" width="7.04511" height="6.02394" rx="3.01197" transform="rotate(-180 388.865 447.324)" fill="#51394F"/>
<rect x="367.729" y="447.324" width="7.04511" height="6.02394" rx="3.01197" transform="rotate(-180 367.729 447.324)" fill="#51394F"/>
<rect x="346.594" y="447.324" width="7.04511" height="6.02394" rx="3.01197" transform="rotate(-180 346.594 447.324)" fill="#51394F"/>
<rect x="325.459" y="447.324" width="7.04511" height="6.02394" rx="3.01197" transform="rotate(-180 325.459 447.324)" fill="#51394F"/>
<rect x="304.323" y="447.324" width="7.04511" height="6.02394" rx="3.01197" transform="rotate(-180 304.323 447.324)" fill="#51394F"/>
<rect x="283.188" y="447.324" width="7.04511" height="6.02394" rx="3.01197" transform="rotate(-180 283.188 447.324)" fill="#51394F"/>
<rect x="262.053" y="447.324" width="7.04511" height="6.02394" rx="3.01197" transform="rotate(-180 262.053 447.324)" fill="#51394F"/>
<rect x="240.917" y="447.324" width="7.04511" height="6.02394" rx="3.01197" transform="rotate(-180 240.917 447.324)" fill="#51394F"/>
<rect x="219.782" y="447.324" width="7.04511" height="6.02394" rx="3.01197" transform="rotate(-180 219.782 447.324)" fill="#51394F"/>
<rect x="410" y="94.9243" width="7.04511" height="6.02394" rx="3.01197" transform="rotate(-180 410 94.9243)" fill="#51394F"/>
<rect x="388.865" y="94.9243" width="7.04511" height="6.02394" rx="3.01197" transform="rotate(-180 388.865 94.9243)" fill="#51394F"/>
<rect x="367.729" y="94.9243" width="7.04511" height="6.02394" rx="3.01197" transform="rotate(-180 367.729 94.9243)" fill="#51394F"/>
<rect x="346.594" y="94.9243" width="7.04511" height="6.02394" rx="3.01197" transform="rotate(-180 346.594 94.9243)" fill="#51394F"/>
<rect x="325.459" y="94.9243" width="7.04511" height="6.02394" rx="3.01197" transform="rotate(-180 325.459 94.9243)" fill="#51394F"/>
<rect x="304.323" y="94.9243" width="7.04511" height="6.02394" rx="3.01197" transform="rotate(-180 304.323 94.9243)" fill="#51394F"/>
<rect x="283.188" y="94.9243" width="7.04511" height="6.02394" rx="3.01197" transform="rotate(-180 283.188 94.9243)" fill="#51394F"/>
<rect x="262.053" y="94.9243" width="7.04511" height="6.02394" rx="3.01197" transform="rotate(-180 262.053 94.9243)" fill="#51394F"/>
<rect x="240.917" y="94.9243" width="7.04511" height="6.02394" rx="3.01197" transform="rotate(-180 240.917 94.9243)" fill="#51394F"/>
<rect x="219.782" y="94.9243" width="7.04511" height="6.02394" rx="3.01197" transform="rotate(-180 219.782 94.9243)" fill="#51394F"/>
<rect x="410" y="73.238" width="7.04511" height="6.02394" rx="3.01197" transform="rotate(-180 410 73.238)" fill="#51394F"/>
<rect x="388.865" y="73.238" width="7.04511" height="6.02394" rx="3.01197" transform="rotate(-180 388.865 73.238)" fill="#51394F"/>
<rect x="367.729" y="73.238" width="7.04511" height="6.02394" rx="3.01197" transform="rotate(-180 367.729 73.238)" fill="#51394F"/>
<rect x="346.594" y="73.238" width="7.04511" height="6.02394" rx="3.01197" transform="rotate(-180 346.594 73.238)" fill="#51394F"/>
<rect x="325.459" y="73.238" width="7.04511" height="6.02394" rx="3.01197" transform="rotate(-180 325.459 73.238)" fill="#51394F"/>
<rect x="304.323" y="73.238" width="7.04511" height="6.02394" rx="3.01197" transform="rotate(-180 304.323 73.238)" fill="#51394F"/>
<rect x="283.188" y="73.238" width="7.04511" height="6.02394" rx="3.01197" transform="rotate(-180 283.188 73.238)" fill="#51394F"/>
<rect x="262.053" y="73.238" width="7.04511" height="6.02394" rx="3.01197" transform="rotate(-180 262.053 73.238)" fill="#51394F"/>
<rect x="240.917" y="73.238" width="7.04511" height="6.02394" rx="3.01197" transform="rotate(-180 240.917 73.238)" fill="#51394F"/>
<rect x="219.782" y="73.238" width="7.04511" height="6.02394" rx="3.01197" transform="rotate(-180 219.782 73.238)" fill="#51394F"/>
<rect x="410" y="50.9495" width="7.04511" height="6.02394" rx="3.01197" transform="rotate(-180 410 50.9495)" fill="#51394F"/>
<rect x="388.865" y="50.9493" width="7.04511" height="6.02394" rx="3.01197" transform="rotate(-180 388.865 50.9493)" fill="#51394F"/>
<rect x="367.729" y="50.9493" width="7.04511" height="6.02394" rx="3.01197" transform="rotate(-180 367.729 50.9493)" fill="#51394F"/>
<rect x="346.594" y="50.9493" width="7.04511" height="6.02394" rx="3.01197" transform="rotate(-180 346.594 50.9493)" fill="#51394F"/>
<rect x="325.459" y="50.9493" width="7.04511" height="6.02394" rx="3.01197" transform="rotate(-180 325.459 50.9493)" fill="#51394F"/>
<rect x="304.323" y="50.9493" width="7.04511" height="6.02394" rx="3.01197" transform="rotate(-180 304.323 50.9493)" fill="#51394F"/>
<rect x="283.188" y="50.9493" width="7.04511" height="6.02394" rx="3.01197" transform="rotate(-180 283.188 50.9493)" fill="#51394F"/>
<rect x="262.053" y="50.9493" width="7.04511" height="6.02394" rx="3.01197" transform="rotate(-180 262.053 50.9493)" fill="#51394F"/>
<rect x="240.917" y="50.9493" width="7.04511" height="6.02394" rx="3.01197" transform="rotate(-180 240.917 50.9493)" fill="#51394F"/>
<rect x="219.782" y="50.9493" width="7.04511" height="6.02394" rx="3.01197" transform="rotate(-180 219.782 50.9493)" fill="#51394F"/>
<rect x="410" y="29.2633" width="7.04511" height="6.02394" rx="3.01197" transform="rotate(-180 410 29.2633)" fill="#51394F"/>
<rect x="388.865" y="29.2633" width="7.04511" height="6.02394" rx="3.01197" transform="rotate(-180 388.865 29.2633)" fill="#51394F"/>
<rect x="367.729" y="29.2633" width="7.04511" height="6.02394" rx="3.01197" transform="rotate(-180 367.729 29.2633)" fill="#51394F"/>
<rect x="346.594" y="29.2633" width="7.04511" height="6.02394" rx="3.01197" transform="rotate(-180 346.594 29.2633)" fill="#51394F"/>
<rect x="325.459" y="29.2633" width="7.04511" height="6.02394" rx="3.01197" transform="rotate(-180 325.459 29.2633)" fill="#51394F"/>
<rect x="304.323" y="29.2633" width="7.04511" height="6.02394" rx="3.01197" transform="rotate(-180 304.323 29.2633)" fill="#51394F"/>
<rect x="283.188" y="29.2633" width="7.04511" height="6.02394" rx="3.01197" transform="rotate(-180 283.188 29.2633)" fill="#51394F"/>
<rect x="262.053" y="29.2633" width="7.04511" height="6.02394" rx="3.01197" transform="rotate(-180 262.053 29.2633)" fill="#51394F"/>
<rect x="240.917" y="29.2633" width="7.04511" height="6.02394" rx="3.01197" transform="rotate(-180 240.917 29.2633)" fill="#51394F"/>
<rect x="219.782" y="29.2633" width="7.04511" height="6.02394" rx="3.01197" transform="rotate(-180 219.782 29.2633)" fill="#51394F"/>
<rect x="410" y="6.97485" width="7.04511" height="6.02394" rx="3.01197" transform="rotate(-180 410 6.97485)" fill="#51394F"/>
<rect x="388.865" y="6.97485" width="7.04511" height="6.02394" rx="3.01197" transform="rotate(-180 388.865 6.97485)" fill="#51394F"/>
<rect x="367.729" y="6.97485" width="7.04511" height="6.02394" rx="3.01197" transform="rotate(-180 367.729 6.97485)" fill="#51394F"/>
<rect x="346.594" y="6.97485" width="7.04511" height="6.02394" rx="3.01197" transform="rotate(-180 346.594 6.97485)" fill="#51394F"/>
<rect x="325.459" y="6.97485" width="7.04511" height="6.02394" rx="3.01197" transform="rotate(-180 325.459 6.97485)" fill="#51394F"/>
<rect x="304.323" y="6.97485" width="7.04511" height="6.02394" rx="3.01197" transform="rotate(-180 304.323 6.97485)" fill="#51394F"/>
<rect x="283.188" y="6.97485" width="7.04511" height="6.02394" rx="3.01197" transform="rotate(-180 283.188 6.97485)" fill="#51394F"/>
<rect x="262.053" y="6.97485" width="7.04511" height="6.02394" rx="3.01197" transform="rotate(-180 262.053 6.97485)" fill="#51394F"/>
<rect x="240.917" y="6.97485" width="7.04511" height="6.02394" rx="3.01197" transform="rotate(-180 240.917 6.97485)" fill="#51394F"/>
<rect x="219.782" y="6.97485" width="7.04511" height="6.02394" rx="3.01197" transform="rotate(-180 219.782 6.97485)" fill="#51394F"/>
</g>
<g opacity="0.3">
<rect x="197.308" y="161.188" width="7.04511" height="6.02394" rx="3.01197" transform="rotate(-180 197.308 161.188)" fill="#51394F"/>
<rect x="176.173" y="161.188" width="7.04511" height="6.02394" rx="3.01197" transform="rotate(-180 176.173 161.188)" fill="#51394F"/>
<rect x="155.038" y="161.188" width="7.04511" height="6.02394" rx="3.01197" transform="rotate(-180 155.038 161.188)" fill="#51394F"/>
<rect x="133.903" y="161.188" width="7.04511" height="6.02394" rx="3.01197" transform="rotate(-180 133.903 161.188)" fill="#51394F"/>
<rect x="112.767" y="161.188" width="7.04511" height="6.02394" rx="3.01197" transform="rotate(-180 112.767 161.188)" fill="#51394F"/>
<rect x="91.6318" y="161.188" width="7.04511" height="6.02394" rx="3.01197" transform="rotate(-180 91.6318 161.188)" fill="#51394F"/>
<rect x="70.4965" y="161.188" width="7.04511" height="6.02394" rx="3.01197" transform="rotate(-180 70.4965 161.188)" fill="#51394F"/>
<rect x="49.3611" y="161.188" width="7.04511" height="6.02394" rx="3.01197" transform="rotate(-180 49.3611 161.188)" fill="#51394F"/>
<rect x="28.2258" y="161.188" width="7.04511" height="6.02394" rx="3.01197" transform="rotate(-180 28.2258 161.188)" fill="#51394F"/>
<rect x="7.09045" y="161.188" width="7.04511" height="6.02394" rx="3.01197" transform="rotate(-180 7.09045 161.188)" fill="#51394F"/>
<rect x="197.308" y="139.501" width="7.04511" height="6.02394" rx="3.01197" transform="rotate(-180 197.308 139.501)" fill="#51394F"/>
<rect x="176.173" y="139.501" width="7.04511" height="6.02394" rx="3.01197" transform="rotate(-180 176.173 139.501)" fill="#51394F"/>
<rect x="155.038" y="139.501" width="7.04511" height="6.02394" rx="3.01197" transform="rotate(-180 155.038 139.501)" fill="#51394F"/>
<rect x="133.903" y="139.501" width="7.04511" height="6.02394" rx="3.01197" transform="rotate(-180 133.903 139.501)" fill="#51394F"/>
<rect x="112.767" y="139.501" width="7.04511" height="6.02394" rx="3.01197" transform="rotate(-180 112.767 139.501)" fill="#51394F"/>
<rect x="91.6318" y="139.501" width="7.04511" height="6.02394" rx="3.01197" transform="rotate(-180 91.6318 139.501)" fill="#51394F"/>
<rect x="70.4965" y="139.501" width="7.04511" height="6.02394" rx="3.01197" transform="rotate(-180 70.4965 139.501)" fill="#51394F"/>
<rect x="49.3611" y="139.501" width="7.04511" height="6.02394" rx="3.01197" transform="rotate(-180 49.3611 139.501)" fill="#51394F"/>
<rect x="28.2258" y="139.501" width="7.04511" height="6.02394" rx="3.01197" transform="rotate(-180 28.2258 139.501)" fill="#51394F"/>
<rect x="7.09045" y="139.501" width="7.04511" height="6.02394" rx="3.01197" transform="rotate(-180 7.09045 139.501)" fill="#51394F"/>
<rect x="197.308" y="117.213" width="7.04511" height="6.02394" rx="3.01197" transform="rotate(-180 197.308 117.213)" fill="#51394F"/>
<rect x="176.173" y="117.213" width="7.04511" height="6.02394" rx="3.01197" transform="rotate(-180 176.173 117.213)" fill="#51394F"/>
<rect x="155.038" y="117.213" width="7.04511" height="6.02394" rx="3.01197" transform="rotate(-180 155.038 117.213)" fill="#51394F"/>
<rect x="133.903" y="117.213" width="7.04511" height="6.02394" rx="3.01197" transform="rotate(-180 133.903 117.213)" fill="#51394F"/>
<rect x="112.767" y="117.213" width="7.04511" height="6.02394" rx="3.01197" transform="rotate(-180 112.767 117.213)" fill="#51394F"/>
<rect x="91.6318" y="117.213" width="7.04511" height="6.02394" rx="3.01197" transform="rotate(-180 91.6318 117.213)" fill="#51394F"/>
<rect x="70.4965" y="117.213" width="7.04511" height="6.02394" rx="3.01197" transform="rotate(-180 70.4965 117.213)" fill="#51394F"/>
<rect x="49.3611" y="117.213" width="7.04511" height="6.02394" rx="3.01197" transform="rotate(-180 49.3611 117.213)" fill="#51394F"/>
<rect x="28.2258" y="117.213" width="7.04511" height="6.02394" rx="3.01197" transform="rotate(-180 28.2258 117.213)" fill="#51394F"/>
<rect x="7.09045" y="117.213" width="7.04511" height="6.02394" rx="3.01197" transform="rotate(-180 7.09045 117.213)" fill="#51394F"/>
<rect x="197.308" y="227.451" width="7.04511" height="6.02394" rx="3.01197" transform="rotate(-180 197.308 227.451)" fill="#51394F"/>
<rect x="176.173" y="227.451" width="7.04511" height="6.02394" rx="3.01197" transform="rotate(-180 176.173 227.451)" fill="#51394F"/>
<rect x="155.038" y="227.451" width="7.04511" height="6.02394" rx="3.01197" transform="rotate(-180 155.038 227.451)" fill="#51394F"/>
<rect x="133.903" y="227.451" width="7.04511" height="6.02394" rx="3.01197" transform="rotate(-180 133.903 227.451)" fill="#51394F"/>
<rect x="112.767" y="227.451" width="7.04511" height="6.02394" rx="3.01197" transform="rotate(-180 112.767 227.451)" fill="#51394F"/>
<rect x="91.6318" y="227.451" width="7.04511" height="6.02394" rx="3.01197" transform="rotate(-180 91.6318 227.451)" fill="#51394F"/>
<rect x="70.4965" y="227.451" width="7.04511" height="6.02394" rx="3.01197" transform="rotate(-180 70.4965 227.451)" fill="#51394F"/>
<rect x="49.3611" y="227.451" width="7.04511" height="6.02394" rx="3.01197" transform="rotate(-180 49.3611 227.451)" fill="#51394F"/>
<rect x="28.2258" y="227.451" width="7.04511" height="6.02394" rx="3.01197" transform="rotate(-180 28.2258 227.451)" fill="#51394F"/>
<rect x="7.09045" y="227.451" width="7.04511" height="6.02394" rx="3.01197" transform="rotate(-180 7.09045 227.451)" fill="#51394F"/>
<rect x="197.308" y="205.765" width="7.04511" height="6.02394" rx="3.01197" transform="rotate(-180 197.308 205.765)" fill="#51394F"/>
<rect x="176.173" y="205.765" width="7.04511" height="6.02394" rx="3.01197" transform="rotate(-180 176.173 205.765)" fill="#51394F"/>
<rect x="155.038" y="205.765" width="7.04511" height="6.02394" rx="3.01197" transform="rotate(-180 155.038 205.765)" fill="#51394F"/>
<rect x="133.903" y="205.765" width="7.04511" height="6.02394" rx="3.01197" transform="rotate(-180 133.903 205.765)" fill="#51394F"/>
<rect x="112.767" y="205.765" width="7.04511" height="6.02394" rx="3.01197" transform="rotate(-180 112.767 205.765)" fill="#51394F"/>
<rect x="91.6318" y="205.765" width="7.04511" height="6.02394" rx="3.01197" transform="rotate(-180 91.6318 205.765)" fill="#51394F"/>
<rect x="70.4965" y="205.765" width="7.04511" height="6.02394" rx="3.01197" transform="rotate(-180 70.4965 205.765)" fill="#51394F"/>
<rect x="49.3611" y="205.765" width="7.04511" height="6.02394" rx="3.01197" transform="rotate(-180 49.3611 205.765)" fill="#51394F"/>
<rect x="28.2258" y="205.765" width="7.04511" height="6.02394" rx="3.01197" transform="rotate(-180 28.2258 205.765)" fill="#51394F"/>
<rect x="7.09045" y="205.765" width="7.04511" height="6.02394" rx="3.01197" transform="rotate(-180 7.09045 205.765)" fill="#51394F"/>
<rect x="197.308" y="183.476" width="7.04511" height="6.02394" rx="3.01197" transform="rotate(-180 197.308 183.476)" fill="#51394F"/>
<rect x="176.173" y="183.476" width="7.04511" height="6.02394" rx="3.01197" transform="rotate(-180 176.173 183.476)" fill="#51394F"/>
<rect x="155.038" y="183.476" width="7.04511" height="6.02394" rx="3.01197" transform="rotate(-180 155.038 183.476)" fill="#51394F"/>
<rect x="133.903" y="183.476" width="7.04511" height="6.02394" rx="3.01197" transform="rotate(-180 133.903 183.476)" fill="#51394F"/>
<rect x="112.767" y="183.476" width="7.04511" height="6.02394" rx="3.01197" transform="rotate(-180 112.767 183.476)" fill="#51394F"/>
<rect x="91.6318" y="183.476" width="7.04511" height="6.02394" rx="3.01197" transform="rotate(-180 91.6318 183.476)" fill="#51394F"/>
<rect x="70.4965" y="183.476" width="7.04511" height="6.02394" rx="3.01197" transform="rotate(-180 70.4965 183.476)" fill="#51394F"/>
<rect x="49.3611" y="183.476" width="7.04511" height="6.02394" rx="3.01197" transform="rotate(-180 49.3611 183.476)" fill="#51394F"/>
<rect x="28.2258" y="183.476" width="7.04511" height="6.02394" rx="3.01197" transform="rotate(-180 28.2258 183.476)" fill="#51394F"/>
<rect x="7.09045" y="183.476" width="7.04511" height="6.02394" rx="3.01197" transform="rotate(-180 7.09045 183.476)" fill="#51394F"/>
<rect x="197.308" y="293.714" width="7.04511" height="6.02394" rx="3.01197" transform="rotate(-180 197.308 293.714)" fill="#51394F"/>
<rect x="176.173" y="293.714" width="7.04511" height="6.02394" rx="3.01197" transform="rotate(-180 176.173 293.714)" fill="#51394F"/>
<rect x="155.038" y="293.714" width="7.04511" height="6.02394" rx="3.01197" transform="rotate(-180 155.038 293.714)" fill="#51394F"/>
<rect x="133.903" y="293.714" width="7.04511" height="6.02394" rx="3.01197" transform="rotate(-180 133.903 293.714)" fill="#51394F"/>
<rect x="112.767" y="293.714" width="7.04511" height="6.02394" rx="3.01197" transform="rotate(-180 112.767 293.714)" fill="#51394F"/>
<rect x="91.6318" y="293.714" width="7.04511" height="6.02394" rx="3.01197" transform="rotate(-180 91.6318 293.714)" fill="#51394F"/>
<rect x="70.4965" y="293.714" width="7.04511" height="6.02394" rx="3.01197" transform="rotate(-180 70.4965 293.714)" fill="#51394F"/>
<rect x="49.3611" y="293.714" width="7.04511" height="6.02394" rx="3.01197" transform="rotate(-180 49.3611 293.714)" fill="#51394F"/>
<rect x="28.2258" y="293.714" width="7.04511" height="6.02394" rx="3.01197" transform="rotate(-180 28.2258 293.714)" fill="#51394F"/>
<rect x="7.09045" y="293.714" width="7.04511" height="6.02394" rx="3.01197" transform="rotate(-180 7.09045 293.714)" fill="#51394F"/>
<rect x="197.308" y="271.426" width="7.04511" height="6.02394" rx="3.01197" transform="rotate(-180 197.308 271.426)" fill="#51394F"/>
<rect x="176.173" y="271.426" width="7.04511" height="6.02394" rx="3.01197" transform="rotate(-180 176.173 271.426)" fill="#51394F"/>
<rect x="155.038" y="271.426" width="7.04511" height="6.02394" rx="3.01197" transform="rotate(-180 155.038 271.426)" fill="#51394F"/>
<rect x="133.903" y="271.426" width="7.04511" height="6.02394" rx="3.01197" transform="rotate(-180 133.903 271.426)" fill="#51394F"/>
<rect x="112.767" y="271.426" width="7.04511" height="6.02394" rx="3.01197" transform="rotate(-180 112.767 271.426)" fill="#51394F"/>
<rect x="91.6318" y="271.426" width="7.04511" height="6.02394" rx="3.01197" transform="rotate(-180 91.6318 271.426)" fill="#51394F"/>
<rect x="70.4965" y="271.426" width="7.04511" height="6.02394" rx="3.01197" transform="rotate(-180 70.4965 271.426)" fill="#51394F"/>
<rect x="49.3611" y="271.426" width="7.04511" height="6.02394" rx="3.01197" transform="rotate(-180 49.3611 271.426)" fill="#51394F"/>
<rect x="28.2258" y="271.426" width="7.04511" height="6.02394" rx="3.01197" transform="rotate(-180 28.2258 271.426)" fill="#51394F"/>
<rect x="7.09045" y="271.426" width="7.04511" height="6.02394" rx="3.01197" transform="rotate(-180 7.09045 271.426)" fill="#51394F"/>
<rect x="197.308" y="249.739" width="7.04511" height="6.02394" rx="3.01197" transform="rotate(-180 197.308 249.739)" fill="#51394F"/>
<rect x="176.173" y="249.739" width="7.04511" height="6.02394" rx="3.01197" transform="rotate(-180 176.173 249.739)" fill="#51394F"/>
<rect x="155.038" y="249.739" width="7.04511" height="6.02394" rx="3.01197" transform="rotate(-180 155.038 249.739)" fill="#51394F"/>
<rect x="133.903" y="249.739" width="7.04511" height="6.02394" rx="3.01197" transform="rotate(-180 133.903 249.739)" fill="#51394F"/>
<rect x="112.767" y="249.739" width="7.04511" height="6.02394" rx="3.01197" transform="rotate(-180 112.767 249.739)" fill="#51394F"/>
<rect x="91.6318" y="249.739" width="7.04511" height="6.02394" rx="3.01197" transform="rotate(-180 91.6318 249.739)" fill="#51394F"/>
<rect x="70.4965" y="249.739" width="7.04511" height="6.02394" rx="3.01197" transform="rotate(-180 70.4965 249.739)" fill="#51394F"/>
<rect x="49.3611" y="249.739" width="7.04511" height="6.02394" rx="3.01197" transform="rotate(-180 49.3611 249.739)" fill="#51394F"/>
<rect x="28.2258" y="249.739" width="7.04511" height="6.02394" rx="3.01197" transform="rotate(-180 28.2258 249.739)" fill="#51394F"/>
<rect x="7.09045" y="249.739" width="7.04511" height="6.02394" rx="3.01197" transform="rotate(-180 7.09045 249.739)" fill="#51394F"/>
<rect x="197.308" y="359.375" width="7.04511" height="6.02394" rx="3.01197" transform="rotate(-180 197.308 359.375)" fill="#51394F"/>
<rect x="176.173" y="359.375" width="7.04511" height="6.02394" rx="3.01197" transform="rotate(-180 176.173 359.375)" fill="#51394F"/>
<rect x="155.038" y="359.375" width="7.04511" height="6.02394" rx="3.01197" transform="rotate(-180 155.038 359.375)" fill="#51394F"/>
<rect x="133.903" y="359.375" width="7.04511" height="6.02394" rx="3.01197" transform="rotate(-180 133.903 359.375)" fill="#51394F"/>
<rect x="112.767" y="359.375" width="7.04511" height="6.02394" rx="3.01197" transform="rotate(-180 112.767 359.375)" fill="#51394F"/>
<rect x="91.6318" y="359.375" width="7.04511" height="6.02394" rx="3.01197" transform="rotate(-180 91.6318 359.375)" fill="#51394F"/>
<rect x="70.4965" y="359.375" width="7.04511" height="6.02394" rx="3.01197" transform="rotate(-180 70.4965 359.375)" fill="#51394F"/>
<rect x="49.3611" y="359.375" width="7.04511" height="6.02394" rx="3.01197" transform="rotate(-180 49.3611 359.375)" fill="#51394F"/>
<rect x="28.2258" y="359.375" width="7.04511" height="6.02394" rx="3.01197" transform="rotate(-180 28.2258 359.375)" fill="#51394F"/>
<rect x="7.09045" y="359.375" width="7.04511" height="6.02394" rx="3.01197" transform="rotate(-180 7.09045 359.375)" fill="#51394F"/>
<rect x="197.308" y="337.689" width="7.04511" height="6.02394" rx="3.01197" transform="rotate(-180 197.308 337.689)" fill="#51394F"/>
<rect x="176.173" y="337.689" width="7.04511" height="6.02394" rx="3.01197" transform="rotate(-180 176.173 337.689)" fill="#51394F"/>
<rect x="155.038" y="337.689" width="7.04511" height="6.02394" rx="3.01197" transform="rotate(-180 155.038 337.689)" fill="#51394F"/>
<rect x="133.903" y="337.689" width="7.04511" height="6.02394" rx="3.01197" transform="rotate(-180 133.903 337.689)" fill="#51394F"/>
<rect x="112.767" y="337.689" width="7.04511" height="6.02394" rx="3.01197" transform="rotate(-180 112.767 337.689)" fill="#51394F"/>
<rect x="91.6318" y="337.689" width="7.04511" height="6.02394" rx="3.01197" transform="rotate(-180 91.6318 337.689)" fill="#51394F"/>
<rect x="70.4965" y="337.689" width="7.04511" height="6.02394" rx="3.01197" transform="rotate(-180 70.4965 337.689)" fill="#51394F"/>
<rect x="49.3611" y="337.689" width="7.04511" height="6.02394" rx="3.01197" transform="rotate(-180 49.3611 337.689)" fill="#51394F"/>
<rect x="28.2258" y="337.689" width="7.04511" height="6.02394" rx="3.01197" transform="rotate(-180 28.2258 337.689)" fill="#51394F"/>
<rect x="7.09045" y="337.689" width="7.04511" height="6.02394" rx="3.01197" transform="rotate(-180 7.09045 337.689)" fill="#51394F"/>
<rect x="197.308" y="315.4" width="7.04511" height="6.02394" rx="3.01197" transform="rotate(-180 197.308 315.4)" fill="#51394F"/>
<rect x="176.173" y="315.4" width="7.04511" height="6.02394" rx="3.01197" transform="rotate(-180 176.173 315.4)" fill="#51394F"/>
<rect x="155.038" y="315.4" width="7.04511" height="6.02394" rx="3.01197" transform="rotate(-180 155.038 315.4)" fill="#51394F"/>
<rect x="133.903" y="315.4" width="7.04511" height="6.02394" rx="3.01197" transform="rotate(-180 133.903 315.4)" fill="#51394F"/>
<rect x="112.767" y="315.4" width="7.04511" height="6.02394" rx="3.01197" transform="rotate(-180 112.767 315.4)" fill="#51394F"/>
<rect x="91.6318" y="315.4" width="7.04511" height="6.02394" rx="3.01197" transform="rotate(-180 91.6318 315.4)" fill="#51394F"/>
<rect x="70.4965" y="315.4" width="7.04511" height="6.02394" rx="3.01197" transform="rotate(-180 70.4965 315.4)" fill="#51394F"/>
<rect x="49.3611" y="315.4" width="7.04511" height="6.02394" rx="3.01197" transform="rotate(-180 49.3611 315.4)" fill="#51394F"/>
<rect x="28.2258" y="315.4" width="7.04511" height="6.02394" rx="3.01197" transform="rotate(-180 28.2258 315.4)" fill="#51394F"/>
<rect x="7.09045" y="315.4" width="7.04511" height="6.02394" rx="3.01197" transform="rotate(-180 7.09045 315.4)" fill="#51394F"/>
<rect x="197.308" y="425.638" width="7.04511" height="6.02394" rx="3.01197" transform="rotate(-180 197.308 425.638)" fill="#51394F"/>
<rect x="176.173" y="425.638" width="7.04511" height="6.02394" rx="3.01197" transform="rotate(-180 176.173 425.638)" fill="#51394F"/>
<rect x="155.038" y="425.638" width="7.04511" height="6.02394" rx="3.01197" transform="rotate(-180 155.038 425.638)" fill="#51394F"/>
<rect x="133.903" y="425.638" width="7.04511" height="6.02394" rx="3.01197" transform="rotate(-180 133.903 425.638)" fill="#51394F"/>
<rect x="112.767" y="425.638" width="7.04511" height="6.02394" rx="3.01197" transform="rotate(-180 112.767 425.638)" fill="#51394F"/>
<rect x="91.6318" y="425.638" width="7.04511" height="6.02394" rx="3.01197" transform="rotate(-180 91.6318 425.638)" fill="#51394F"/>
<rect x="70.4965" y="425.638" width="7.04511" height="6.02394" rx="3.01197" transform="rotate(-180 70.4965 425.638)" fill="#51394F"/>
<rect x="49.3611" y="425.638" width="7.04511" height="6.02394" rx="3.01197" transform="rotate(-180 49.3611 425.638)" fill="#51394F"/>
<rect x="28.2258" y="425.638" width="7.04511" height="6.02394" rx="3.01197" transform="rotate(-180 28.2258 425.638)" fill="#51394F"/>
<rect x="7.09045" y="425.638" width="7.04511" height="6.02394" rx="3.01197" transform="rotate(-180 7.09045 425.638)" fill="#51394F"/>
<rect x="197.308" y="403.35" width="7.04511" height="6.02394" rx="3.01197" transform="rotate(-180 197.308 403.35)" fill="#51394F"/>
<rect x="176.173" y="403.35" width="7.04511" height="6.02394" rx="3.01197" transform="rotate(-180 176.173 403.35)" fill="#51394F"/>
<rect x="155.038" y="403.35" width="7.04511" height="6.02394" rx="3.01197" transform="rotate(-180 155.038 403.35)" fill="#51394F"/>
<rect x="133.903" y="403.35" width="7.04511" height="6.02394" rx="3.01197" transform="rotate(-180 133.903 403.35)" fill="#51394F"/>
<rect x="112.767" y="403.35" width="7.04511" height="6.02394" rx="3.01197" transform="rotate(-180 112.767 403.35)" fill="#51394F"/>
<rect x="91.6318" y="403.35" width="7.04511" height="6.02394" rx="3.01197" transform="rotate(-180 91.6318 403.35)" fill="#51394F"/>
<rect x="70.4965" y="403.35" width="7.04511" height="6.02394" rx="3.01197" transform="rotate(-180 70.4965 403.35)" fill="#51394F"/>
<rect x="49.3611" y="403.35" width="7.04511" height="6.02394" rx="3.01197" transform="rotate(-180 49.3611 403.35)" fill="#51394F"/>
<rect x="28.2258" y="403.35" width="7.04511" height="6.02394" rx="3.01197" transform="rotate(-180 28.2258 403.35)" fill="#51394F"/>
<rect x="7.09045" y="403.35" width="7.04511" height="6.02394" rx="3.01197" transform="rotate(-180 7.09045 403.35)" fill="#51394F"/>
<rect x="197.308" y="381.664" width="7.04511" height="6.02394" rx="3.01197" transform="rotate(-180 197.308 381.664)" fill="#51394F"/>
<rect x="176.173" y="381.664" width="7.04511" height="6.02394" rx="3.01197" transform="rotate(-180 176.173 381.664)" fill="#51394F"/>
<rect x="155.038" y="381.664" width="7.04511" height="6.02394" rx="3.01197" transform="rotate(-180 155.038 381.664)" fill="#51394F"/>
<rect x="133.903" y="381.664" width="7.04511" height="6.02394" rx="3.01197" transform="rotate(-180 133.903 381.664)" fill="#51394F"/>
<rect x="112.767" y="381.664" width="7.04511" height="6.02394" rx="3.01197" transform="rotate(-180 112.767 381.664)" fill="#51394F"/>
<rect x="91.6318" y="381.664" width="7.04511" height="6.02394" rx="3.01197" transform="rotate(-180 91.6318 381.664)" fill="#51394F"/>
<rect x="70.4965" y="381.664" width="7.04511" height="6.02394" rx="3.01197" transform="rotate(-180 70.4965 381.664)" fill="#51394F"/>
<rect x="49.3611" y="381.664" width="7.04511" height="6.02394" rx="3.01197" transform="rotate(-180 49.3611 381.664)" fill="#51394F"/>
<rect x="28.2258" y="381.664" width="7.04511" height="6.02394" rx="3.01197" transform="rotate(-180 28.2258 381.664)" fill="#51394F"/>
<rect x="7.09045" y="381.664" width="7.04511" height="6.02394" rx="3.01197" transform="rotate(-180 7.09045 381.664)" fill="#51394F"/>
<rect x="197.308" y="447.324" width="7.04511" height="6.02394" rx="3.01197" transform="rotate(-180 197.308 447.324)" fill="#51394F"/>
<rect x="176.173" y="447.324" width="7.04511" height="6.02394" rx="3.01197" transform="rotate(-180 176.173 447.324)" fill="#51394F"/>
<rect x="155.038" y="447.324" width="7.04511" height="6.02394" rx="3.01197" transform="rotate(-180 155.038 447.324)" fill="#51394F"/>
<rect x="133.902" y="447.324" width="7.04511" height="6.02394" rx="3.01197" transform="rotate(-180 133.902 447.324)" fill="#51394F"/>
<rect x="112.767" y="447.324" width="7.04511" height="6.02394" rx="3.01197" transform="rotate(-180 112.767 447.324)" fill="#51394F"/>
<rect x="91.6318" y="447.324" width="7.04511" height="6.02394" rx="3.01197" transform="rotate(-180 91.6318 447.324)" fill="#51394F"/>
<rect x="70.4965" y="447.324" width="7.04511" height="6.02394" rx="3.01197" transform="rotate(-180 70.4965 447.324)" fill="#51394F"/>
<rect x="49.3611" y="447.324" width="7.04511" height="6.02394" rx="3.01197" transform="rotate(-180 49.3611 447.324)" fill="#51394F"/>
<rect x="28.2258" y="447.324" width="7.04511" height="6.02394" rx="3.01197" transform="rotate(-180 28.2258 447.324)" fill="#51394F"/>
<rect x="7.09045" y="447.324" width="7.04511" height="6.02394" rx="3.01197" transform="rotate(-180 7.09045 447.324)" fill="#51394F"/>
<rect x="197.308" y="94.9243" width="7.04511" height="6.02394" rx="3.01197" transform="rotate(-180 197.308 94.9243)" fill="#51394F"/>
<rect x="176.173" y="94.9243" width="7.04511" height="6.02394" rx="3.01197" transform="rotate(-180 176.173 94.9243)" fill="#51394F"/>
<rect x="155.038" y="94.9243" width="7.04511" height="6.02394" rx="3.01197" transform="rotate(-180 155.038 94.9243)" fill="#51394F"/>
<rect x="133.903" y="94.9243" width="7.04511" height="6.02394" rx="3.01197" transform="rotate(-180 133.903 94.9243)" fill="#51394F"/>
<rect x="112.767" y="94.9243" width="7.04511" height="6.02394" rx="3.01197" transform="rotate(-180 112.767 94.9243)" fill="#51394F"/>
<rect x="91.6318" y="94.9243" width="7.04511" height="6.02394" rx="3.01197" transform="rotate(-180 91.6318 94.9243)" fill="#51394F"/>
<rect x="70.4965" y="94.9243" width="7.04511" height="6.02394" rx="3.01197" transform="rotate(-180 70.4965 94.9243)" fill="#51394F"/>
<rect x="49.3611" y="94.9243" width="7.04511" height="6.02394" rx="3.01197" transform="rotate(-180 49.3611 94.9243)" fill="#51394F"/>
<rect x="28.2258" y="94.9243" width="7.04511" height="6.02394" rx="3.01197" transform="rotate(-180 28.2258 94.9243)" fill="#51394F"/>
<rect x="7.09045" y="94.9243" width="7.04511" height="6.02394" rx="3.01197" transform="rotate(-180 7.09045 94.9243)" fill="#51394F"/>
<rect x="197.308" y="73.238" width="7.04511" height="6.02394" rx="3.01197" transform="rotate(-180 197.308 73.238)" fill="#51394F"/>
<rect x="176.173" y="73.238" width="7.04511" height="6.02394" rx="3.01197" transform="rotate(-180 176.173 73.238)" fill="#51394F"/>
<rect x="155.038" y="73.238" width="7.04511" height="6.02394" rx="3.01197" transform="rotate(-180 155.038 73.238)" fill="#51394F"/>
<rect x="133.903" y="73.238" width="7.04511" height="6.02394" rx="3.01197" transform="rotate(-180 133.903 73.238)" fill="#51394F"/>
<rect x="112.767" y="73.238" width="7.04511" height="6.02394" rx="3.01197" transform="rotate(-180 112.767 73.238)" fill="#51394F"/>
<rect x="91.6318" y="73.238" width="7.04511" height="6.02394" rx="3.01197" transform="rotate(-180 91.6318 73.238)" fill="#51394F"/>
<rect x="70.4965" y="73.238" width="7.04511" height="6.02394" rx="3.01197" transform="rotate(-180 70.4965 73.238)" fill="#51394F"/>
<rect x="49.3611" y="73.238" width="7.04511" height="6.02394" rx="3.01197" transform="rotate(-180 49.3611 73.238)" fill="#51394F"/>
<rect x="28.2258" y="73.238" width="7.04511" height="6.02394" rx="3.01197" transform="rotate(-180 28.2258 73.238)" fill="#51394F"/>
<rect x="7.09045" y="73.238" width="7.04511" height="6.02394" rx="3.01197" transform="rotate(-180 7.09045 73.238)" fill="#51394F"/>
<rect x="197.308" y="50.9495" width="7.04511" height="6.02394" rx="3.01197" transform="rotate(-180 197.308 50.9495)" fill="#51394F"/>
<rect x="176.173" y="50.9493" width="7.04511" height="6.02394" rx="3.01197" transform="rotate(-180 176.173 50.9493)" fill="#51394F"/>
<rect x="155.038" y="50.9493" width="7.04511" height="6.02394" rx="3.01197" transform="rotate(-180 155.038 50.9493)" fill="#51394F"/>
<rect x="133.903" y="50.9493" width="7.04511" height="6.02394" rx="3.01197" transform="rotate(-180 133.903 50.9493)" fill="#51394F"/>
<rect x="112.767" y="50.9493" width="7.04511" height="6.02394" rx="3.01197" transform="rotate(-180 112.767 50.9493)" fill="#51394F"/>
<rect x="91.6318" y="50.9493" width="7.04511" height="6.02394" rx="3.01197" transform="rotate(-180 91.6318 50.9493)" fill="#51394F"/>
<rect x="70.4965" y="50.9493" width="7.04511" height="6.02394" rx="3.01197" transform="rotate(-180 70.4965 50.9493)" fill="#51394F"/>
<rect x="49.3611" y="50.9493" width="7.04511" height="6.02394" rx="3.01197" transform="rotate(-180 49.3611 50.9493)" fill="#51394F"/>
<rect x="28.2258" y="50.9493" width="7.04511" height="6.02394" rx="3.01197" transform="rotate(-180 28.2258 50.9493)" fill="#51394F"/>
<rect x="7.09045" y="50.9493" width="7.04511" height="6.02394" rx="3.01197" transform="rotate(-180 7.09045 50.9493)" fill="#51394F"/>
<rect x="197.308" y="29.2633" width="7.04511" height="6.02394" rx="3.01197" transform="rotate(-180 197.308 29.2633)" fill="#51394F"/>
<rect x="176.173" y="29.2633" width="7.04511" height="6.02394" rx="3.01197" transform="rotate(-180 176.173 29.2633)" fill="#51394F"/>
<rect x="155.038" y="29.2633" width="7.04511" height="6.02394" rx="3.01197" transform="rotate(-180 155.038 29.2633)" fill="#51394F"/>
<rect x="133.903" y="29.2633" width="7.04511" height="6.02394" rx="3.01197" transform="rotate(-180 133.903 29.2633)" fill="#51394F"/>
<rect x="112.767" y="29.2633" width="7.04511" height="6.02394" rx="3.01197" transform="rotate(-180 112.767 29.2633)" fill="#51394F"/>
<rect x="91.6318" y="29.2633" width="7.04511" height="6.02394" rx="3.01197" transform="rotate(-180 91.6318 29.2633)" fill="#51394F"/>
<rect x="70.4965" y="29.2633" width="7.04511" height="6.02394" rx="3.01197" transform="rotate(-180 70.4965 29.2633)" fill="#51394F"/>
<rect x="49.3611" y="29.2633" width="7.04511" height="6.02394" rx="3.01197" transform="rotate(-180 49.3611 29.2633)" fill="#51394F"/>
<rect x="28.2258" y="29.2633" width="7.04511" height="6.02394" rx="3.01197" transform="rotate(-180 28.2258 29.2633)" fill="#51394F"/>
<rect x="7.09045" y="29.2633" width="7.04511" height="6.02394" rx="3.01197" transform="rotate(-180 7.09045 29.2633)" fill="#51394F"/>
<rect x="197.308" y="6.97485" width="7.04511" height="6.02394" rx="3.01197" transform="rotate(-180 197.308 6.97485)" fill="#51394F"/>
<rect x="176.173" y="6.97485" width="7.04511" height="6.02394" rx="3.01197" transform="rotate(-180 176.173 6.97485)" fill="#51394F"/>
<rect x="155.038" y="6.97485" width="7.04511" height="6.02394" rx="3.01197" transform="rotate(-180 155.038 6.97485)" fill="#51394F"/>
<rect x="133.903" y="6.97485" width="7.04511" height="6.02394" rx="3.01197" transform="rotate(-180 133.903 6.97485)" fill="#51394F"/>
<rect x="112.767" y="6.97485" width="7.04511" height="6.02394" rx="3.01197" transform="rotate(-180 112.767 6.97485)" fill="#51394F"/>
<rect x="91.6318" y="6.97485" width="7.04511" height="6.02394" rx="3.01197" transform="rotate(-180 91.6318 6.97485)" fill="#51394F"/>
<rect x="70.4965" y="6.97485" width="7.04511" height="6.02394" rx="3.01197" transform="rotate(-180 70.4965 6.97485)" fill="#51394F"/>
<rect x="49.3611" y="6.97485" width="7.04511" height="6.02394" rx="3.01197" transform="rotate(-180 49.3611 6.97485)" fill="#51394F"/>
<rect x="28.2258" y="6.97485" width="7.04511" height="6.02394" rx="3.01197" transform="rotate(-180 28.2258 6.97485)" fill="#51394F"/>
<rect x="7.09045" y="6.97485" width="7.04511" height="6.02394" rx="3.01197" transform="rotate(-180 7.09045 6.97485)" fill="#51394F"/>
</g>
</g>
</svg>
