<svg width="146" height="147" viewBox="0 0 146 147" fill="none" xmlns="http://www.w3.org/2000/svg">
<path d="M6.57771 3.93461C6.57771 5.68351 5.16076 7.10128 3.41288 7.10128C1.66499 7.10128 0.248047 5.68351 0.248047 3.93461C0.248047 2.18571 1.66499 0.767944 3.41288 0.767944C5.16076 0.767944 6.57771 2.18571 6.57771 3.93461Z" fill="url(#paint0_linear_3_26)"/>
<path d="M6.57771 3.93461C6.57771 5.68351 5.16076 7.10128 3.41288 7.10128C1.66499 7.10128 0.248047 5.68351 0.248047 3.93461C0.248047 2.18571 1.66499 0.767944 3.41288 0.767944C5.16076 0.767944 6.57771 2.18571 6.57771 3.93461Z" fill="#90D400"/>
<path d="M52.9957 3.93461C52.9957 5.68351 51.5787 7.10128 49.8308 7.10128C48.0829 7.10128 46.666 5.68351 46.666 3.93461C46.666 2.18571 48.0829 0.767944 49.8308 0.767944C51.5787 0.767944 52.9957 2.18571 52.9957 3.93461Z" fill="url(#paint1_linear_3_26)"/>
<path d="M52.9957 3.93461C52.9957 5.68351 51.5787 7.10128 49.8308 7.10128C48.0829 7.10128 46.666 5.68351 46.666 3.93461C46.666 2.18571 48.0829 0.767944 49.8308 0.767944C51.5787 0.767944 52.9957 2.18571 52.9957 3.93461Z" fill="#90D400"/>
<path d="M99.4129 3.93461C99.4129 5.68351 97.9959 7.10128 96.248 7.10128C94.5002 7.10128 93.0832 5.68351 93.0832 3.93461C93.0832 2.18571 94.5002 0.767944 96.248 0.767944C97.9959 0.767944 99.4129 2.18571 99.4129 3.93461Z" fill="url(#paint2_linear_3_26)"/>
<path d="M99.4129 3.93461C99.4129 5.68351 97.9959 7.10128 96.248 7.10128C94.5002 7.10128 93.0832 5.68351 93.0832 3.93461C93.0832 2.18571 94.5002 0.767944 96.248 0.767944C97.9959 0.767944 99.4129 2.18571 99.4129 3.93461Z" fill="#90D400"/>
<path d="M145.831 3.93461C145.831 5.68351 144.414 7.10128 142.666 7.10128C140.918 7.10128 139.501 5.68351 139.501 3.93461C139.501 2.18571 140.918 0.767944 142.666 0.767944C144.414 0.767944 145.831 2.18571 145.831 3.93461Z" fill="url(#paint3_linear_3_26)"/>
<path d="M145.831 3.93461C145.831 5.68351 144.414 7.10128 142.666 7.10128C140.918 7.10128 139.501 5.68351 139.501 3.93461C139.501 2.18571 140.918 0.767944 142.666 0.767944C144.414 0.767944 145.831 2.18571 145.831 3.93461Z" fill="#90D400"/>
<path d="M6.57771 50.379C6.57771 52.1279 5.16076 53.5457 3.41288 53.5457C1.66499 53.5457 0.248047 52.1279 0.248047 50.379C0.248047 48.6301 1.66499 47.2124 3.41288 47.2124C5.16076 47.2124 6.57771 48.6301 6.57771 50.379Z" fill="url(#paint4_linear_3_26)"/>
<path d="M6.57771 50.379C6.57771 52.1279 5.16076 53.5457 3.41288 53.5457C1.66499 53.5457 0.248047 52.1279 0.248047 50.379C0.248047 48.6301 1.66499 47.2124 3.41288 47.2124C5.16076 47.2124 6.57771 48.6301 6.57771 50.379Z" fill="#90D400"/>
<path d="M52.9957 50.379C52.9957 52.1279 51.5787 53.5457 49.8308 53.5457C48.0829 53.5457 46.666 52.1279 46.666 50.379C46.666 48.6301 48.0829 47.2124 49.8308 47.2124C51.5787 47.2124 52.9957 48.6301 52.9957 50.379Z" fill="url(#paint5_linear_3_26)"/>
<path d="M52.9957 50.379C52.9957 52.1279 51.5787 53.5457 49.8308 53.5457C48.0829 53.5457 46.666 52.1279 46.666 50.379C46.666 48.6301 48.0829 47.2124 49.8308 47.2124C51.5787 47.2124 52.9957 48.6301 52.9957 50.379Z" fill="#90D400"/>
<path d="M99.4129 50.379C99.4129 52.1279 97.9959 53.5457 96.248 53.5457C94.5002 53.5457 93.0832 52.1279 93.0832 50.379C93.0832 48.6301 94.5002 47.2124 96.248 47.2124C97.9959 47.2124 99.4129 48.6301 99.4129 50.379Z" fill="url(#paint6_linear_3_26)"/>
<path d="M99.4129 50.379C99.4129 52.1279 97.9959 53.5457 96.248 53.5457C94.5002 53.5457 93.0832 52.1279 93.0832 50.379C93.0832 48.6301 94.5002 47.2124 96.248 47.2124C97.9959 47.2124 99.4129 48.6301 99.4129 50.379Z" fill="#90D400"/>
<path d="M145.831 50.379C145.831 52.1279 144.414 53.5457 142.666 53.5457C140.918 53.5457 139.501 52.1279 139.501 50.379C139.501 48.6301 140.918 47.2124 142.666 47.2124C144.414 47.2124 145.831 48.6301 145.831 50.379Z" fill="url(#paint7_linear_3_26)"/>
<path d="M145.831 50.379C145.831 52.1279 144.414 53.5457 142.666 53.5457C140.918 53.5457 139.501 52.1279 139.501 50.379C139.501 48.6301 140.918 47.2124 142.666 47.2124C144.414 47.2124 145.831 48.6301 145.831 50.379Z" fill="#90D400"/>
<path d="M6.57771 96.8236C6.57771 98.5725 5.16076 99.9902 3.41288 99.9902C1.66499 99.9902 0.248047 98.5725 0.248047 96.8236C0.248047 95.0747 1.66499 93.6569 3.41288 93.6569C5.16076 93.6569 6.57771 95.0747 6.57771 96.8236Z" fill="url(#paint8_linear_3_26)"/>
<path d="M6.57771 96.8236C6.57771 98.5725 5.16076 99.9902 3.41288 99.9902C1.66499 99.9902 0.248047 98.5725 0.248047 96.8236C0.248047 95.0747 1.66499 93.6569 3.41288 93.6569C5.16076 93.6569 6.57771 95.0747 6.57771 96.8236Z" fill="#90D400"/>
<path d="M52.9957 96.8236C52.9957 98.5725 51.5787 99.9902 49.8308 99.9902C48.0829 99.9902 46.666 98.5725 46.666 96.8236C46.666 95.0747 48.0829 93.6569 49.8308 93.6569C51.5787 93.6569 52.9957 95.0747 52.9957 96.8236Z" fill="url(#paint9_linear_3_26)"/>
<path d="M52.9957 96.8236C52.9957 98.5725 51.5787 99.9902 49.8308 99.9902C48.0829 99.9902 46.666 98.5725 46.666 96.8236C46.666 95.0747 48.0829 93.6569 49.8308 93.6569C51.5787 93.6569 52.9957 95.0747 52.9957 96.8236Z" fill="#90D400"/>
<path d="M99.4129 96.8236C99.4129 98.5725 97.9959 99.9902 96.248 99.9902C94.5002 99.9902 93.0832 98.5725 93.0832 96.8236C93.0832 95.0747 94.5002 93.6569 96.248 93.6569C97.9959 93.6569 99.4129 95.0747 99.4129 96.8236Z" fill="url(#paint10_linear_3_26)"/>
<path d="M99.4129 96.8236C99.4129 98.5725 97.9959 99.9902 96.248 99.9902C94.5002 99.9902 93.0832 98.5725 93.0832 96.8236C93.0832 95.0747 94.5002 93.6569 96.248 93.6569C97.9959 93.6569 99.4129 95.0747 99.4129 96.8236Z" fill="#90D400"/>
<path d="M145.831 96.8236C145.831 98.5725 144.414 99.9902 142.666 99.9902C140.918 99.9902 139.501 98.5725 139.501 96.8236C139.501 95.0747 140.918 93.6569 142.666 93.6569C144.414 93.6569 145.831 95.0747 145.831 96.8236Z" fill="url(#paint11_linear_3_26)"/>
<path d="M145.831 96.8236C145.831 98.5725 144.414 99.9902 142.666 99.9902C140.918 99.9902 139.501 98.5725 139.501 96.8236C139.501 95.0747 140.918 93.6569 142.666 93.6569C144.414 93.6569 145.831 95.0747 145.831 96.8236Z" fill="#90D400"/>
<path d="M6.57771 143.268C6.57771 145.017 5.16076 146.435 3.41288 146.435C1.66499 146.435 0.248047 145.017 0.248047 143.268C0.248047 141.519 1.66499 140.101 3.41288 140.101C5.16076 140.101 6.57771 141.519 6.57771 143.268Z" fill="url(#paint12_linear_3_26)"/>
<path d="M6.57771 143.268C6.57771 145.017 5.16076 146.435 3.41288 146.435C1.66499 146.435 0.248047 145.017 0.248047 143.268C0.248047 141.519 1.66499 140.101 3.41288 140.101C5.16076 140.101 6.57771 141.519 6.57771 143.268Z" fill="#90D400"/>
<path d="M52.9957 143.268C52.9957 145.017 51.5787 146.435 49.8308 146.435C48.0829 146.435 46.666 145.017 46.666 143.268C46.666 141.519 48.0829 140.101 49.8308 140.101C51.5787 140.101 52.9957 141.519 52.9957 143.268Z" fill="url(#paint13_linear_3_26)"/>
<path d="M52.9957 143.268C52.9957 145.017 51.5787 146.435 49.8308 146.435C48.0829 146.435 46.666 145.017 46.666 143.268C46.666 141.519 48.0829 140.101 49.8308 140.101C51.5787 140.101 52.9957 141.519 52.9957 143.268Z" fill="#90D400"/>
<path d="M99.4129 143.268C99.4129 145.017 97.9959 146.435 96.248 146.435C94.5002 146.435 93.0832 145.017 93.0832 143.268C93.0832 141.519 94.5002 140.101 96.248 140.101C97.9959 140.101 99.4129 141.519 99.4129 143.268Z" fill="url(#paint14_linear_3_26)"/>
<path d="M99.4129 143.268C99.4129 145.017 97.9959 146.435 96.248 146.435C94.5002 146.435 93.0832 145.017 93.0832 143.268C93.0832 141.519 94.5002 140.101 96.248 140.101C97.9959 140.101 99.4129 141.519 99.4129 143.268Z" fill="#90D400"/>
<path d="M145.831 143.268C145.831 145.017 144.414 146.435 142.666 146.435C140.918 146.435 139.501 145.017 139.501 143.268C139.501 141.519 140.918 140.101 142.666 140.101C144.414 140.101 145.831 141.519 145.831 143.268Z" fill="url(#paint15_linear_3_26)"/>
<path d="M145.831 143.268C145.831 145.017 144.414 146.435 142.666 146.435C140.918 146.435 139.501 145.017 139.501 143.268C139.501 141.519 140.918 140.101 142.666 140.101C144.414 140.101 145.831 141.519 145.831 143.268Z" fill="#90D400"/>
<defs>
<linearGradient id="paint0_linear_3_26" x1="32.7665" y1="-45.6765" x2="112.763" y2="-34.9221" gradientUnits="userSpaceOnUse">
<stop stop-color="#FF495A"/>
<stop offset="1" stop-color="#D71747"/>
</linearGradient>
<linearGradient id="paint1_linear_3_26" x1="32.7665" y1="-45.6765" x2="112.763" y2="-34.9221" gradientUnits="userSpaceOnUse">
<stop stop-color="#FF495A"/>
<stop offset="1" stop-color="#D71747"/>
</linearGradient>
<linearGradient id="paint2_linear_3_26" x1="32.7665" y1="-45.6765" x2="112.763" y2="-34.9221" gradientUnits="userSpaceOnUse">
<stop stop-color="#FF495A"/>
<stop offset="1" stop-color="#D71747"/>
</linearGradient>
<linearGradient id="paint3_linear_3_26" x1="32.7665" y1="-45.6765" x2="112.763" y2="-34.9221" gradientUnits="userSpaceOnUse">
<stop stop-color="#FF495A"/>
<stop offset="1" stop-color="#D71747"/>
</linearGradient>
<linearGradient id="paint4_linear_3_26" x1="32.7665" y1="-45.6765" x2="112.763" y2="-34.9221" gradientUnits="userSpaceOnUse">
<stop stop-color="#FF495A"/>
<stop offset="1" stop-color="#D71747"/>
</linearGradient>
<linearGradient id="paint5_linear_3_26" x1="32.7665" y1="-45.6765" x2="112.763" y2="-34.9221" gradientUnits="userSpaceOnUse">
<stop stop-color="#FF495A"/>
<stop offset="1" stop-color="#D71747"/>
</linearGradient>
<linearGradient id="paint6_linear_3_26" x1="32.7665" y1="-45.6765" x2="112.763" y2="-34.9221" gradientUnits="userSpaceOnUse">
<stop stop-color="#FF495A"/>
<stop offset="1" stop-color="#D71747"/>
</linearGradient>
<linearGradient id="paint7_linear_3_26" x1="32.7665" y1="-45.6765" x2="112.763" y2="-34.9221" gradientUnits="userSpaceOnUse">
<stop stop-color="#FF495A"/>
<stop offset="1" stop-color="#D71747"/>
</linearGradient>
<linearGradient id="paint8_linear_3_26" x1="32.7665" y1="-45.6765" x2="112.763" y2="-34.9221" gradientUnits="userSpaceOnUse">
<stop stop-color="#FF495A"/>
<stop offset="1" stop-color="#D71747"/>
</linearGradient>
<linearGradient id="paint9_linear_3_26" x1="32.7665" y1="-45.6765" x2="112.763" y2="-34.9221" gradientUnits="userSpaceOnUse">
<stop stop-color="#FF495A"/>
<stop offset="1" stop-color="#D71747"/>
</linearGradient>
<linearGradient id="paint10_linear_3_26" x1="32.7665" y1="-45.6765" x2="112.763" y2="-34.9221" gradientUnits="userSpaceOnUse">
<stop stop-color="#FF495A"/>
<stop offset="1" stop-color="#D71747"/>
</linearGradient>
<linearGradient id="paint11_linear_3_26" x1="32.7665" y1="-45.6765" x2="112.763" y2="-34.9221" gradientUnits="userSpaceOnUse">
<stop stop-color="#FF495A"/>
<stop offset="1" stop-color="#D71747"/>
</linearGradient>
<linearGradient id="paint12_linear_3_26" x1="32.7665" y1="-45.6765" x2="112.763" y2="-34.9221" gradientUnits="userSpaceOnUse">
<stop stop-color="#FF495A"/>
<stop offset="1" stop-color="#D71747"/>
</linearGradient>
<linearGradient id="paint13_linear_3_26" x1="32.7665" y1="-45.6765" x2="112.763" y2="-34.9221" gradientUnits="userSpaceOnUse">
<stop stop-color="#FF495A"/>
<stop offset="1" stop-color="#D71747"/>
</linearGradient>
<linearGradient id="paint14_linear_3_26" x1="32.7665" y1="-45.6765" x2="112.763" y2="-34.9221" gradientUnits="userSpaceOnUse">
<stop stop-color="#FF495A"/>
<stop offset="1" stop-color="#D71747"/>
</linearGradient>
<linearGradient id="paint15_linear_3_26" x1="32.7665" y1="-45.6765" x2="112.763" y2="-34.9221" gradientUnits="userSpaceOnUse">
<stop stop-color="#FF495A"/>
<stop offset="1" stop-color="#D71747"/>
</linearGradient>
</defs>
</svg>
