<svg width="213" height="481" viewBox="0 0 213 481" fill="none" xmlns="http://www.w3.org/2000/svg">
<g opacity="0.16">
<rect x="0.352783" y="308.356" width="7.58264" height="6.48355" rx="3.02444" fill="#51394F"/>
<rect x="23.1007" y="308.356" width="7.58264" height="6.48355" rx="3.02444" fill="#51394F"/>
<rect x="45.8486" y="308.356" width="7.58264" height="6.48355" rx="3.02444" fill="#51394F"/>
<rect x="68.5967" y="308.356" width="7.58264" height="6.48355" rx="3.02444" fill="#51394F"/>
<rect x="91.3445" y="308.356" width="7.58264" height="6.48355" rx="3.02444" fill="#51394F"/>
<rect x="114.092" y="308.356" width="7.58264" height="6.48355" rx="3.02444" fill="#51394F"/>
<rect x="136.84" y="308.356" width="7.58264" height="6.48355" rx="3.02444" fill="#51394F"/>
<rect x="159.588" y="308.356" width="7.58264" height="6.48355" rx="3.02444" fill="#51394F"/>
<rect x="182.336" y="308.356" width="7.58264" height="6.48355" rx="3.02444" fill="#51394F"/>
<rect x="205.084" y="308.356" width="7.58264" height="6.48355" rx="3.02444" fill="#51394F"/>
<rect x="0.352783" y="331.697" width="7.58264" height="6.48355" rx="3.02444" fill="#51394F"/>
<rect x="23.1007" y="331.697" width="7.58264" height="6.48355" rx="3.02444" fill="#51394F"/>
<rect x="45.8486" y="331.697" width="7.58264" height="6.48355" rx="3.02444" fill="#51394F"/>
<rect x="68.5967" y="331.697" width="7.58264" height="6.48355" rx="3.02444" fill="#51394F"/>
<rect x="91.3445" y="331.697" width="7.58264" height="6.48355" rx="3.02444" fill="#51394F"/>
<rect x="114.092" y="331.697" width="7.58264" height="6.48355" rx="3.02444" fill="#51394F"/>
<rect x="136.84" y="331.697" width="7.58264" height="6.48355" rx="3.02444" fill="#51394F"/>
<rect x="159.588" y="331.697" width="7.58264" height="6.48355" rx="3.02444" fill="#51394F"/>
<rect x="182.336" y="331.697" width="7.58264" height="6.48355" rx="3.02444" fill="#51394F"/>
<rect x="205.084" y="331.697" width="7.58264" height="6.48355" rx="3.02444" fill="#51394F"/>
<rect x="0.352783" y="355.686" width="7.58264" height="6.48355" rx="3.02444" fill="#51394F"/>
<rect x="23.1007" y="355.686" width="7.58264" height="6.48355" rx="3.02444" fill="#51394F"/>
<rect x="45.8486" y="355.686" width="7.58264" height="6.48355" rx="3.02444" fill="#51394F"/>
<rect x="68.5967" y="355.686" width="7.58264" height="6.48355" rx="3.02444" fill="#51394F"/>
<rect x="91.3445" y="355.686" width="7.58264" height="6.48355" rx="3.02444" fill="#51394F"/>
<rect x="114.092" y="355.686" width="7.58264" height="6.48355" rx="3.02444" fill="#51394F"/>
<rect x="136.84" y="355.686" width="7.58264" height="6.48355" rx="3.02444" fill="#51394F"/>
<rect x="159.588" y="355.686" width="7.58264" height="6.48355" rx="3.02444" fill="#51394F"/>
<rect x="182.336" y="355.686" width="7.58264" height="6.48355" rx="3.02444" fill="#51394F"/>
<rect x="205.084" y="355.686" width="7.58264" height="6.48355" rx="3.02444" fill="#51394F"/>
<rect x="0.352783" y="237.037" width="7.58264" height="6.48355" rx="3.02444" fill="#51394F"/>
<rect x="23.1007" y="237.037" width="7.58264" height="6.48355" rx="3.02444" fill="#51394F"/>
<rect x="45.8486" y="237.037" width="7.58264" height="6.48355" rx="3.02444" fill="#51394F"/>
<rect x="68.5967" y="237.037" width="7.58264" height="6.48355" rx="3.02444" fill="#51394F"/>
<rect x="91.3445" y="237.037" width="7.58264" height="6.48355" rx="3.02444" fill="#51394F"/>
<rect x="114.092" y="237.037" width="7.58264" height="6.48355" rx="3.02444" fill="#51394F"/>
<rect x="136.84" y="237.037" width="7.58264" height="6.48355" rx="3.02444" fill="#51394F"/>
<rect x="159.588" y="237.037" width="7.58264" height="6.48355" rx="3.02444" fill="#51394F"/>
<rect x="182.336" y="237.037" width="7.58264" height="6.48355" rx="3.02444" fill="#51394F"/>
<rect x="205.084" y="237.037" width="7.58264" height="6.48355" rx="3.02444" fill="#51394F"/>
<rect x="0.352783" y="260.378" width="7.58264" height="6.48355" rx="3.02444" fill="#51394F"/>
<rect x="23.1007" y="260.378" width="7.58264" height="6.48355" rx="3.02444" fill="#51394F"/>
<rect x="45.8486" y="260.378" width="7.58264" height="6.48355" rx="3.02444" fill="#51394F"/>
<rect x="68.5967" y="260.378" width="7.58264" height="6.48355" rx="3.02444" fill="#51394F"/>
<rect x="91.3445" y="260.378" width="7.58264" height="6.48355" rx="3.02444" fill="#51394F"/>
<rect x="114.092" y="260.378" width="7.58264" height="6.48355" rx="3.02444" fill="#51394F"/>
<rect x="136.84" y="260.378" width="7.58264" height="6.48355" rx="3.02444" fill="#51394F"/>
<rect x="159.588" y="260.378" width="7.58264" height="6.48355" rx="3.02444" fill="#51394F"/>
<rect x="182.336" y="260.378" width="7.58264" height="6.48355" rx="3.02444" fill="#51394F"/>
<rect x="205.084" y="260.378" width="7.58264" height="6.48355" rx="3.02444" fill="#51394F"/>
<rect x="0.352783" y="284.367" width="7.58264" height="6.48355" rx="3.02444" fill="#51394F"/>
<rect x="23.1007" y="284.367" width="7.58264" height="6.48355" rx="3.02444" fill="#51394F"/>
<rect x="45.8486" y="284.367" width="7.58264" height="6.48355" rx="3.02444" fill="#51394F"/>
<rect x="68.5967" y="284.367" width="7.58264" height="6.48355" rx="3.02444" fill="#51394F"/>
<rect x="91.3445" y="284.367" width="7.58264" height="6.48355" rx="3.02444" fill="#51394F"/>
<rect x="114.092" y="284.367" width="7.58264" height="6.48355" rx="3.02444" fill="#51394F"/>
<rect x="136.84" y="284.367" width="7.58264" height="6.48355" rx="3.02444" fill="#51394F"/>
<rect x="159.588" y="284.367" width="7.58264" height="6.48355" rx="3.02444" fill="#51394F"/>
<rect x="182.336" y="284.367" width="7.58264" height="6.48355" rx="3.02444" fill="#51394F"/>
<rect x="205.084" y="284.367" width="7.58264" height="6.48355" rx="3.02444" fill="#51394F"/>
<rect x="0.352783" y="165.718" width="7.58264" height="6.48355" rx="3.02444" fill="#51394F"/>
<rect x="23.1007" y="165.718" width="7.58264" height="6.48355" rx="3.02444" fill="#51394F"/>
<rect x="45.8486" y="165.718" width="7.58264" height="6.48355" rx="3.02444" fill="#51394F"/>
<rect x="68.5967" y="165.718" width="7.58264" height="6.48355" rx="3.02444" fill="#51394F"/>
<rect x="91.3445" y="165.718" width="7.58264" height="6.48355" rx="3.02444" fill="#51394F"/>
<rect x="114.092" y="165.718" width="7.58264" height="6.48355" rx="3.02444" fill="#51394F"/>
<rect x="136.84" y="165.718" width="7.58264" height="6.48355" rx="3.02444" fill="#51394F"/>
<rect x="159.588" y="165.718" width="7.58264" height="6.48355" rx="3.02444" fill="#51394F"/>
<rect x="182.336" y="165.718" width="7.58264" height="6.48355" rx="3.02444" fill="#51394F"/>
<rect x="205.084" y="165.718" width="7.58264" height="6.48355" rx="3.02444" fill="#51394F"/>
<rect x="0.352783" y="189.707" width="7.58264" height="6.48355" rx="3.02444" fill="#51394F"/>
<rect x="23.1007" y="189.707" width="7.58264" height="6.48355" rx="3.02444" fill="#51394F"/>
<rect x="45.8486" y="189.707" width="7.58264" height="6.48355" rx="3.02444" fill="#51394F"/>
<rect x="68.5967" y="189.707" width="7.58264" height="6.48355" rx="3.02444" fill="#51394F"/>
<rect x="91.3445" y="189.707" width="7.58264" height="6.48355" rx="3.02444" fill="#51394F"/>
<rect x="114.092" y="189.707" width="7.58264" height="6.48355" rx="3.02444" fill="#51394F"/>
<rect x="136.84" y="189.707" width="7.58264" height="6.48355" rx="3.02444" fill="#51394F"/>
<rect x="159.588" y="189.707" width="7.58264" height="6.48355" rx="3.02444" fill="#51394F"/>
<rect x="182.336" y="189.707" width="7.58264" height="6.48355" rx="3.02444" fill="#51394F"/>
<rect x="205.084" y="189.707" width="7.58264" height="6.48355" rx="3.02444" fill="#51394F"/>
<rect x="0.352783" y="213.048" width="7.58264" height="6.48355" rx="3.02444" fill="#51394F"/>
<rect x="23.1007" y="213.048" width="7.58264" height="6.48355" rx="3.02444" fill="#51394F"/>
<rect x="45.8486" y="213.048" width="7.58264" height="6.48355" rx="3.02444" fill="#51394F"/>
<rect x="68.5967" y="213.048" width="7.58264" height="6.48355" rx="3.02444" fill="#51394F"/>
<rect x="91.3445" y="213.048" width="7.58264" height="6.48355" rx="3.02444" fill="#51394F"/>
<rect x="114.092" y="213.048" width="7.58264" height="6.48355" rx="3.02444" fill="#51394F"/>
<rect x="136.84" y="213.048" width="7.58264" height="6.48355" rx="3.02444" fill="#51394F"/>
<rect x="159.588" y="213.048" width="7.58264" height="6.48355" rx="3.02444" fill="#51394F"/>
<rect x="182.336" y="213.048" width="7.58264" height="6.48355" rx="3.02444" fill="#51394F"/>
<rect x="205.084" y="213.048" width="7.58264" height="6.48355" rx="3.02444" fill="#51394F"/>
<rect x="0.352783" y="95.0471" width="7.58264" height="6.48355" rx="3.02444" fill="#51394F"/>
<rect x="23.1007" y="95.0471" width="7.58264" height="6.48355" rx="3.02444" fill="#51394F"/>
<rect x="45.8486" y="95.0471" width="7.58264" height="6.48355" rx="3.02444" fill="#51394F"/>
<rect x="68.5967" y="95.0471" width="7.58264" height="6.48355" rx="3.02444" fill="#51394F"/>
<rect x="91.3445" y="95.0471" width="7.58264" height="6.48355" rx="3.02444" fill="#51394F"/>
<rect x="114.092" y="95.0471" width="7.58264" height="6.48355" rx="3.02444" fill="#51394F"/>
<rect x="136.84" y="95.0471" width="7.58264" height="6.48355" rx="3.02444" fill="#51394F"/>
<rect x="159.588" y="95.0471" width="7.58264" height="6.48355" rx="3.02444" fill="#51394F"/>
<rect x="182.336" y="95.0471" width="7.58264" height="6.48355" rx="3.02444" fill="#51394F"/>
<rect x="205.084" y="95.0471" width="7.58264" height="6.48355" rx="3.02444" fill="#51394F"/>
<rect x="0.352783" y="118.388" width="7.58264" height="6.48355" rx="3.02444" fill="#51394F"/>
<rect x="23.1007" y="118.388" width="7.58264" height="6.48355" rx="3.02444" fill="#51394F"/>
<rect x="45.8486" y="118.388" width="7.58264" height="6.48355" rx="3.02444" fill="#51394F"/>
<rect x="68.5967" y="118.388" width="7.58264" height="6.48355" rx="3.02444" fill="#51394F"/>
<rect x="91.3445" y="118.388" width="7.58264" height="6.48355" rx="3.02444" fill="#51394F"/>
<rect x="114.092" y="118.388" width="7.58264" height="6.48355" rx="3.02444" fill="#51394F"/>
<rect x="136.84" y="118.388" width="7.58264" height="6.48355" rx="3.02444" fill="#51394F"/>
<rect x="159.588" y="118.388" width="7.58264" height="6.48355" rx="3.02444" fill="#51394F"/>
<rect x="182.336" y="118.388" width="7.58264" height="6.48355" rx="3.02444" fill="#51394F"/>
<rect x="205.084" y="118.388" width="7.58264" height="6.48355" rx="3.02444" fill="#51394F"/>
<rect x="0.352783" y="142.377" width="7.58264" height="6.48355" rx="3.02444" fill="#51394F"/>
<rect x="23.1007" y="142.377" width="7.58264" height="6.48355" rx="3.02444" fill="#51394F"/>
<rect x="45.8486" y="142.377" width="7.58264" height="6.48355" rx="3.02444" fill="#51394F"/>
<rect x="68.5967" y="142.377" width="7.58264" height="6.48355" rx="3.02444" fill="#51394F"/>
<rect x="91.3445" y="142.377" width="7.58264" height="6.48355" rx="3.02444" fill="#51394F"/>
<rect x="114.092" y="142.377" width="7.58264" height="6.48355" rx="3.02444" fill="#51394F"/>
<rect x="136.84" y="142.377" width="7.58264" height="6.48355" rx="3.02444" fill="#51394F"/>
<rect x="159.588" y="142.377" width="7.58264" height="6.48355" rx="3.02444" fill="#51394F"/>
<rect x="182.336" y="142.377" width="7.58264" height="6.48355" rx="3.02444" fill="#51394F"/>
<rect x="205.084" y="142.377" width="7.58264" height="6.48355" rx="3.02444" fill="#51394F"/>
<rect x="0.352783" y="23.728" width="7.58264" height="6.48355" rx="3.02444" fill="#51394F"/>
<rect x="23.1007" y="23.7279" width="7.58264" height="6.48355" rx="3.02444" fill="#51394F"/>
<rect x="45.8486" y="23.7279" width="7.58264" height="6.48355" rx="3.02444" fill="#51394F"/>
<rect x="68.5967" y="23.7279" width="7.58264" height="6.48355" rx="3.02444" fill="#51394F"/>
<rect x="91.3445" y="23.7279" width="7.58264" height="6.48355" rx="3.02444" fill="#51394F"/>
<rect x="114.092" y="23.7279" width="7.58264" height="6.48355" rx="3.02444" fill="#51394F"/>
<rect x="136.84" y="23.7279" width="7.58264" height="6.48355" rx="3.02444" fill="#51394F"/>
<rect x="159.588" y="23.7279" width="7.58264" height="6.48355" rx="3.02444" fill="#51394F"/>
<rect x="182.336" y="23.7279" width="7.58264" height="6.48355" rx="3.02444" fill="#51394F"/>
<rect x="205.084" y="23.7279" width="7.58264" height="6.48355" rx="3.02444" fill="#51394F"/>
<rect x="0.352783" y="47.717" width="7.58264" height="6.48355" rx="3.02444" fill="#51394F"/>
<rect x="23.1007" y="47.717" width="7.58264" height="6.48355" rx="3.02444" fill="#51394F"/>
<rect x="45.8486" y="47.717" width="7.58264" height="6.48355" rx="3.02444" fill="#51394F"/>
<rect x="68.5967" y="47.717" width="7.58264" height="6.48355" rx="3.02444" fill="#51394F"/>
<rect x="91.3445" y="47.717" width="7.58264" height="6.48355" rx="3.02444" fill="#51394F"/>
<rect x="114.092" y="47.717" width="7.58264" height="6.48355" rx="3.02444" fill="#51394F"/>
<rect x="136.84" y="47.717" width="7.58264" height="6.48355" rx="3.02444" fill="#51394F"/>
<rect x="159.588" y="47.717" width="7.58264" height="6.48355" rx="3.02444" fill="#51394F"/>
<rect x="182.336" y="47.717" width="7.58264" height="6.48355" rx="3.02444" fill="#51394F"/>
<rect x="205.084" y="47.717" width="7.58264" height="6.48355" rx="3.02444" fill="#51394F"/>
<rect x="0.352783" y="71.0579" width="7.58264" height="6.48355" rx="3.02444" fill="#51394F"/>
<rect x="23.1007" y="71.0579" width="7.58264" height="6.48355" rx="3.02444" fill="#51394F"/>
<rect x="45.8486" y="71.0579" width="7.58264" height="6.48355" rx="3.02444" fill="#51394F"/>
<rect x="68.5967" y="71.0579" width="7.58264" height="6.48355" rx="3.02444" fill="#51394F"/>
<rect x="91.3445" y="71.0579" width="7.58264" height="6.48355" rx="3.02444" fill="#51394F"/>
<rect x="114.092" y="71.0579" width="7.58264" height="6.48355" rx="3.02444" fill="#51394F"/>
<rect x="136.84" y="71.0579" width="7.58264" height="6.48355" rx="3.02444" fill="#51394F"/>
<rect x="159.588" y="71.0579" width="7.58264" height="6.48355" rx="3.02444" fill="#51394F"/>
<rect x="182.336" y="71.0579" width="7.58264" height="6.48355" rx="3.02444" fill="#51394F"/>
<rect x="205.084" y="71.0579" width="7.58264" height="6.48355" rx="3.02444" fill="#51394F"/>
<rect x="0.352783" y="0.387207" width="7.58264" height="6.48355" rx="3.02444" fill="#51394F"/>
<rect x="23.1007" y="0.387207" width="7.58264" height="6.48355" rx="3.02444" fill="#51394F"/>
<rect x="45.8486" y="0.387207" width="7.58264" height="6.48355" rx="3.02444" fill="#51394F"/>
<rect x="68.5967" y="0.387207" width="7.58264" height="6.48355" rx="3.02444" fill="#51394F"/>
<rect x="91.3445" y="0.387207" width="7.58264" height="6.48355" rx="3.02444" fill="#51394F"/>
<rect x="114.092" y="0.387207" width="7.58264" height="6.48355" rx="3.02444" fill="#51394F"/>
<rect x="136.84" y="0.387207" width="7.58264" height="6.48355" rx="3.02444" fill="#51394F"/>
<rect x="159.588" y="0.387207" width="7.58264" height="6.48355" rx="3.02444" fill="#51394F"/>
<rect x="182.336" y="0.387207" width="7.58264" height="6.48355" rx="3.02444" fill="#51394F"/>
<rect x="205.084" y="0.387207" width="7.58264" height="6.48355" rx="3.02444" fill="#51394F"/>
<rect x="0.352783" y="379.675" width="7.58264" height="6.48355" rx="3.02444" fill="#51394F"/>
<rect x="23.1007" y="379.675" width="7.58264" height="6.48355" rx="3.02444" fill="#51394F"/>
<rect x="45.8486" y="379.675" width="7.58264" height="6.48355" rx="3.02444" fill="#51394F"/>
<rect x="68.5967" y="379.675" width="7.58264" height="6.48355" rx="3.02444" fill="#51394F"/>
<rect x="91.3445" y="379.675" width="7.58264" height="6.48355" rx="3.02444" fill="#51394F"/>
<rect x="114.092" y="379.675" width="7.58264" height="6.48355" rx="3.02444" fill="#51394F"/>
<rect x="136.84" y="379.675" width="7.58264" height="6.48355" rx="3.02444" fill="#51394F"/>
<rect x="159.588" y="379.675" width="7.58264" height="6.48355" rx="3.02444" fill="#51394F"/>
<rect x="182.336" y="379.675" width="7.58264" height="6.48355" rx="3.02444" fill="#51394F"/>
<rect x="205.084" y="379.675" width="7.58264" height="6.48355" rx="3.02444" fill="#51394F"/>
<rect x="0.352783" y="403.016" width="7.58264" height="6.48355" rx="3.02444" fill="#51394F"/>
<rect x="23.1007" y="403.016" width="7.58264" height="6.48355" rx="3.02444" fill="#51394F"/>
<rect x="45.8486" y="403.016" width="7.58264" height="6.48355" rx="3.02444" fill="#51394F"/>
<rect x="68.5967" y="403.016" width="7.58264" height="6.48355" rx="3.02444" fill="#51394F"/>
<rect x="91.3445" y="403.016" width="7.58264" height="6.48355" rx="3.02444" fill="#51394F"/>
<rect x="114.092" y="403.016" width="7.58264" height="6.48355" rx="3.02444" fill="#51394F"/>
<rect x="136.84" y="403.016" width="7.58264" height="6.48355" rx="3.02444" fill="#51394F"/>
<rect x="159.588" y="403.016" width="7.58264" height="6.48355" rx="3.02444" fill="#51394F"/>
<rect x="182.336" y="403.016" width="7.58264" height="6.48355" rx="3.02444" fill="#51394F"/>
<rect x="205.084" y="403.016" width="7.58264" height="6.48355" rx="3.02444" fill="#51394F"/>
<rect x="0.352783" y="427.005" width="7.58264" height="6.48355" rx="3.02444" fill="#51394F"/>
<rect x="23.1007" y="427.005" width="7.58264" height="6.48355" rx="3.02444" fill="#51394F"/>
<rect x="45.8486" y="427.005" width="7.58264" height="6.48355" rx="3.02444" fill="#51394F"/>
<rect x="68.5967" y="427.005" width="7.58264" height="6.48355" rx="3.02444" fill="#51394F"/>
<rect x="91.3445" y="427.005" width="7.58264" height="6.48355" rx="3.02444" fill="#51394F"/>
<rect x="114.092" y="427.005" width="7.58264" height="6.48355" rx="3.02444" fill="#51394F"/>
<rect x="136.84" y="427.005" width="7.58264" height="6.48355" rx="3.02444" fill="#51394F"/>
<rect x="159.588" y="427.005" width="7.58264" height="6.48355" rx="3.02444" fill="#51394F"/>
<rect x="182.336" y="427.005" width="7.58264" height="6.48355" rx="3.02444" fill="#51394F"/>
<rect x="205.084" y="427.005" width="7.58264" height="6.48355" rx="3.02444" fill="#51394F"/>
<rect x="0.352783" y="450.346" width="7.58264" height="6.48355" rx="3.02444" fill="#51394F"/>
<rect x="23.1007" y="450.346" width="7.58264" height="6.48355" rx="3.02444" fill="#51394F"/>
<rect x="45.8486" y="450.346" width="7.58264" height="6.48355" rx="3.02444" fill="#51394F"/>
<rect x="68.5967" y="450.346" width="7.58264" height="6.48355" rx="3.02444" fill="#51394F"/>
<rect x="91.3445" y="450.346" width="7.58264" height="6.48355" rx="3.02444" fill="#51394F"/>
<rect x="114.092" y="450.346" width="7.58264" height="6.48355" rx="3.02444" fill="#51394F"/>
<rect x="136.84" y="450.346" width="7.58264" height="6.48355" rx="3.02444" fill="#51394F"/>
<rect x="159.588" y="450.346" width="7.58264" height="6.48355" rx="3.02444" fill="#51394F"/>
<rect x="182.336" y="450.346" width="7.58264" height="6.48355" rx="3.02444" fill="#51394F"/>
<rect x="205.084" y="450.346" width="7.58264" height="6.48355" rx="3.02444" fill="#51394F"/>
<rect x="0.352783" y="474.335" width="7.58264" height="6.48355" rx="3.02444" fill="#51394F"/>
<rect x="23.1007" y="474.335" width="7.58264" height="6.48355" rx="3.02444" fill="#51394F"/>
<rect x="45.8486" y="474.335" width="7.58264" height="6.48355" rx="3.02444" fill="#51394F"/>
<rect x="68.5967" y="474.335" width="7.58264" height="6.48355" rx="3.02444" fill="#51394F"/>
<rect x="91.3445" y="474.335" width="7.58264" height="6.48355" rx="3.02444" fill="#51394F"/>
<rect x="114.092" y="474.335" width="7.58264" height="6.48355" rx="3.02444" fill="#51394F"/>
<rect x="136.84" y="474.335" width="7.58264" height="6.48355" rx="3.02444" fill="#51394F"/>
<rect x="159.588" y="474.335" width="7.58264" height="6.48355" rx="3.02444" fill="#51394F"/>
<rect x="182.336" y="474.335" width="7.58264" height="6.48355" rx="3.02444" fill="#51394F"/>
<rect x="205.084" y="474.335" width="7.58264" height="6.48355" rx="3.02444" fill="#51394F"/>
</g>
</svg>
