<svg width="17" height="17" viewBox="0 0 17 17" fill="none" xmlns="http://www.w3.org/2000/svg">
<path fill-rule="evenodd" clip-rule="evenodd" d="M8.77234 0.653809C6.59901 0.653809 6.32834 0.663142 5.47367 0.703142C2.56701 0.836475 0.953672 2.44848 0.820339 5.35514C0.781672 6.20981 0.772339 6.48181 0.772339 8.65381C0.772339 10.8271 0.781672 11.0991 0.820339 11.9525C0.953672 14.8578 2.56701 16.4725 5.47367 16.6058C6.32834 16.6445 6.59901 16.6538 8.77234 16.6538C10.9457 16.6538 11.2177 16.6445 12.0723 16.6058C14.9737 16.4725 16.5937 14.8605 16.7243 11.9525C16.763 11.0991 16.7723 10.8271 16.7723 8.65381C16.7723 6.48181 16.763 6.20981 16.7243 5.35514C16.5937 2.45248 14.979 0.835142 12.0723 0.703142C11.2177 0.663142 10.9457 0.653809 8.77234 0.653809ZM8.77234 2.09648C10.9083 2.09648 11.1617 2.10448 12.0057 2.14314C14.175 2.24181 15.1857 3.26981 15.2857 5.42181C15.323 6.26581 15.331 6.51781 15.331 8.65381C15.331 10.7898 15.323 11.0431 15.2857 11.8858C15.1857 14.0365 14.1763 15.0671 12.0057 15.1658C11.1617 15.2031 10.9097 15.2125 8.77234 15.2125C6.63634 15.2125 6.38301 15.2045 5.54034 15.1658C3.36701 15.0658 2.36034 14.0338 2.26034 11.8858C2.22301 11.0431 2.21367 10.7898 2.21367 8.65381C2.21367 6.51781 2.22301 6.26448 2.26034 5.42181C2.35901 3.26848 3.36967 2.24048 5.54034 2.14181C6.38301 2.10314 6.63634 2.09648 8.77234 2.09648ZM4.66434 8.65381C4.66434 6.38447 6.50434 4.54581 8.77234 4.54581C11.0403 4.54581 12.8803 6.38581 12.8803 8.65381C12.8803 10.9231 11.0403 12.7618 8.77234 12.7618C6.50434 12.7618 4.66434 10.9231 4.66434 8.65381ZM8.77234 11.3205C7.29901 11.3205 6.10567 10.1271 6.10567 8.65381C6.10567 7.18181 7.29901 5.98714 8.77234 5.98714C10.2443 5.98714 11.4403 7.18048 11.4403 8.65381C11.4403 10.1271 10.2443 11.3205 8.77234 11.3205ZM12.0817 4.38448C12.0817 3.85381 12.5123 3.42448 13.0417 3.42448C13.5737 3.42448 14.003 3.85381 14.003 4.38448C14.003 4.91514 13.5723 5.34448 13.0417 5.34448C12.511 5.34448 12.0817 4.91381 12.0817 4.38448Z" fill="white"/>
</svg>
